<?xml version="1.0" encoding="UTF-8"?>
<svg id="In_x5F_Body_x5F_Dieline" xmlns="http://www.w3.org/2000/svg" viewBox="0 0 1024 1024">
  <defs>
    <style>
      .cls-1 {
        stroke: #212020;
        stroke-dasharray: 20 5 0 0;
        stroke-miterlimit: 10;
      }

      .cls-1, .cls-2 {
        fill: none;
        stroke-width: .5px;
      }

      .cls-2 {
        stroke: #1c964d;
        stroke-linejoin: round;
      }
    </style>
  </defs>
  <path class="cls-1" d="M675.67,909.64h-13.58s-15.59-7.8-15.59-7.8l-19.62,11.99h-133.76v-153.18s-10.13,0-10.13,0l-2.1-2.1h-109.47v-41.97s-58.75,0-58.75,0v41.97h-109.47s-2.1,2.1-2.1,2.1h-10.13s0,153.18,0,153.18H57.19s-23.61-14.43-23.61-14.43v-50.12s-13.58-6.79-13.58-6.79H4.2v-81.34s-4.2-2.1-4.2-2.1V93.38h4.2s0-16.79,0-16.79h986.22v16.79s33.57,0,33.57,0v667.28h-33.57s0,73.44,0,73.44h13.58s19.99,10,19.99,10v55.55s-19.99,10-19.99,10h-13.58s0,37.77,0,37.77h-314.75v-37.77Z"/>
  <g>
    <polyline class="cls-2" points="8.4 80.79 8.4 97.58 4.2 97.58"/>
    <polyline class="cls-2" points="58.37 909.64 186.76 909.64 186.76 756.46"/>
    <polyline class="cls-2" points="1019.8 756.46 988.33 756.46 986.23 758.56"/>
    <line class="cls-2" x1="495.22" y1="80.79" x2="675.67" y2="80.79"/>
    <line class="cls-2" x1="679.87" y1="80.79" x2="679.87" y2="97.58"/>
    <line class="cls-2" x1="495.22" y1="80.79" x2="342.04" y2="80.79"/>
    <line class="cls-2" x1="495.22" y1="154.23" x2="342.04" y2="154.23"/>
    <line class="cls-2" x1="486" y1="204.59" x2="342.04" y2="204.59"/>
    <line class="cls-2" x1="342.04" y1="80.79" x2="342.04" y2="154.23"/>
    <line class="cls-2" x1="1019.8" y1="97.58" x2="1019.8" y2="756.46"/>
    <line class="cls-2" x1="679.87" y1="80.79" x2="986.23" y2="80.79"/>
    <line class="cls-2" x1="342.04" y1="208.79" x2="342.04" y2="689.31"/>
    <line class="cls-2" x1="495.22" y1="208.79" x2="342.04" y2="208.79"/>
    <line class="cls-2" x1="4.2" y1="97.58" x2="4.2" y2="756.46"/>
    <line class="cls-2" x1="188.86" y1="80.79" x2="342.04" y2="80.79"/>
    <line class="cls-2" x1="188.86" y1="154.23" x2="342.04" y2="154.23"/>
    <line class="cls-2" x1="198.08" y1="204.59" x2="342.04" y2="204.59"/>
    <line class="cls-2" x1="188.86" y1="208.79" x2="342.04" y2="208.79"/>
    <line class="cls-2" x1="188.86" y1="80.79" x2="8.4" y2="80.79"/>
    <line class="cls-2" x1="342.04" y1="696.65" x2="342.04" y2="705.05"/>
    <path class="cls-2" d="M495.22,208.79c-2.73-2.85-6.55-4.38-10.49-4.2"/>
    <path class="cls-2" d="M188.86,208.79c2.73-2.85,6.55-4.38,10.49-4.2"/>
    <polyline class="cls-2" points="919.08 195.99 747.02 195.99 738.63 238.16 747.02 238.16"/>
    <line class="cls-2" x1="927.48" y1="238.16" x2="919.08" y2="195.99"/>
    <line class="cls-2" x1="919.08" y1="238.16" x2="927.48" y2="238.16"/>
    <polyline class="cls-2" points="910.69 204.59 755.41 204.59 747.02 238.16"/>
    <line class="cls-2" x1="919.08" y1="238.16" x2="910.69" y2="204.59"/>
    <polyline class="cls-2" points="679.87 943.21 986.23 943.21 986.23 905.44"/>
    <polyline class="cls-2" points="625.7 909.64 497.32 909.64 497.32 756.46"/>
    <line class="cls-2" x1="1019.8" y1="846.69" x2="1003.02" y2="838.29"/>
    <line class="cls-2" x1="988.48" y1="905.44" x2="1003.02" y2="905.44"/>
    <line class="cls-2" x1="1019.8" y1="897.05" x2="1019.8" y2="846.69"/>
    <line class="cls-2" x1="986.23" y1="846.69" x2="984.13" y2="846.69"/>
    <line class="cls-2" x1="986.23" y1="838.29" x2="986.23" y2="758.56"/>
    <line class="cls-2" x1="1003.02" y1="905.44" x2="1019.8" y2="897.05"/>
    <line class="cls-2" x1="1003.02" y1="838.29" x2="988.48" y2="838.29"/>
    <line class="cls-2" x1="646.3" y1="846.69" x2="663.08" y2="838.29"/>
    <line class="cls-2" x1="677.62" y1="905.44" x2="663.08" y2="905.44"/>
    <line class="cls-2" x1="646.3" y1="897.05" x2="646.3" y2="846.69"/>
    <line class="cls-2" x1="679.87" y1="838.29" x2="679.87" y2="756.46"/>
    <line class="cls-2" x1="663.08" y1="905.44" x2="646.3" y2="897.05"/>
    <line class="cls-2" x1="663.08" y1="838.29" x2="677.62" y2="838.29"/>
    <line class="cls-2" x1="679.87" y1="943.21" x2="679.87" y2="905.44"/>
    <line class="cls-2" x1="646.3" y1="897.05" x2="625.7" y2="909.64"/>
    <polyline class="cls-2" points="497.32 756.46 495.22 756.46 484.73 756.46"/>
    <line class="cls-2" x1="201.45" y1="754.36" x2="308.47" y2="754.36"/>
    <line class="cls-2" x1="482.63" y1="754.36" x2="375.61" y2="754.36"/>
    <line class="cls-2" x1="484.73" y1="756.46" x2="482.63" y2="754.36"/>
    <line class="cls-2" x1="199.35" y1="756.46" x2="201.45" y2="754.36"/>
    <polyline class="cls-2" points="679.87 756.46 675.67 758.56 675.67 838.29"/>
    <line class="cls-2" x1="4.2" y1="756.46" x2="8.4" y2="758.56"/>
    <polyline class="cls-2" points="675.67 80.79 675.67 97.58 679.87 97.58"/>
    <line class="cls-2" x1="1019.8" y1="97.58" x2="986.23" y2="97.58"/>
    <line class="cls-2" x1="986.23" y1="80.79" x2="986.23" y2="97.58"/>
    <line class="cls-2" x1="186.76" y1="756.46" x2="199.35" y2="756.46"/>
    <line class="cls-2" x1="8.4" y1="758.56" x2="8.4" y2="838.29"/>
    <line class="cls-2" x1="37.78" y1="897.05" x2="58.37" y2="909.64"/>
    <line class="cls-2" x1="20.99" y1="838.29" x2="8.4" y2="838.29"/>
    <line class="cls-2" x1="37.78" y1="846.69" x2="20.99" y2="838.29"/>
    <line class="cls-2" x1="37.78" y1="897.05" x2="37.78" y2="846.69"/>
    <line class="cls-2" x1="88.14" y1="760.65" x2="83.94" y2="756.46"/>
    <line class="cls-2" x1="151.09" y1="756.46" x2="146.89" y2="760.65"/>
    <line class="cls-2" x1="88.14" y1="760.65" x2="146.89" y2="760.65"/>
    <line class="cls-2" x1="595.94" y1="760.65" x2="600.13" y2="756.46"/>
    <line class="cls-2" x1="532.99" y1="756.46" x2="537.18" y2="760.65"/>
    <line class="cls-2" x1="595.94" y1="760.65" x2="537.18" y2="760.65"/>
    <line class="cls-2" x1="986.23" y1="838.29" x2="984.13" y2="846.69"/>
    <line class="cls-2" x1="986.23" y1="846.69" x2="988.48" y2="838.29"/>
    <line class="cls-2" x1="986.23" y1="897.05" x2="984.13" y2="897.05"/>
    <line class="cls-2" x1="986.23" y1="905.44" x2="984.13" y2="897.05"/>
    <line class="cls-2" x1="986.23" y1="897.05" x2="988.48" y2="905.44"/>
    <line class="cls-2" x1="679.87" y1="846.69" x2="681.97" y2="846.69"/>
    <line class="cls-2" x1="679.87" y1="838.29" x2="681.97" y2="846.69"/>
    <line class="cls-2" x1="679.87" y1="846.69" x2="677.62" y2="838.29"/>
    <line class="cls-2" x1="679.87" y1="897.05" x2="681.97" y2="897.05"/>
    <line class="cls-2" x1="679.87" y1="905.44" x2="681.97" y2="897.05"/>
    <line class="cls-2" x1="679.87" y1="897.05" x2="677.62" y2="905.44"/>
    <line class="cls-2" x1="375.61" y1="712.39" x2="375.61" y2="754.36"/>
    <line class="cls-2" x1="308.47" y1="712.39" x2="308.47" y2="754.36"/>
    <line class="cls-2" x1="375.61" y1="712.39" x2="308.47" y2="712.39"/>
    <line class="cls-2" x1="495.22" y1="756.46" x2="495.22" y2="712.39"/>
    <line class="cls-2" x1="495.22" y1="208.79" x2="495.22" y2="80.79"/>
    <line class="cls-2" x1="484.73" y1="756.46" x2="484.73" y2="208.79"/>
    <line class="cls-2" x1="491.02" y1="154.23" x2="491.02" y2="80.79"/>
    <line class="cls-2" x1="986.23" y1="758.56" x2="986.23" y2="97.58"/>
    <line class="cls-2" x1="199.35" y1="756.46" x2="199.35" y2="208.79"/>
    <line class="cls-2" x1="193.06" y1="154.23" x2="193.06" y2="80.79"/>
    <line class="cls-2" x1="4.2" y1="756.46" x2="83.94" y2="756.46"/>
    <polyline class="cls-2" points="188.86 756.46 188.86 208.79 188.86 80.79"/>
    <line class="cls-2" x1="342.04" y1="689.31" x2="342.04" y2="696.65"/>
    <line class="cls-2" x1="342.04" y1="705.05" x2="342.04" y2="712.39"/>
    <line class="cls-2" x1="308.47" y1="80.79" x2="308.47" y2="154.23"/>
    <line class="cls-2" x1="316.86" y1="208.79" x2="316.86" y2="712.39"/>
    <line class="cls-2" x1="375.61" y1="80.79" x2="375.61" y2="154.23"/>
    <line class="cls-2" x1="367.22" y1="208.79" x2="367.22" y2="712.39"/>
    <line class="cls-2" x1="986.23" y1="758.56" x2="679.87" y2="758.56"/>
    <line class="cls-2" x1="984.13" y1="846.69" x2="984.13" y2="897.05"/>
    <line class="cls-2" x1="679.87" y1="97.58" x2="679.87" y2="756.46"/>
    <line class="cls-2" x1="151.09" y1="756.46" x2="186.76" y2="756.46"/>
    <line class="cls-2" x1="679.88" y1="756.46" x2="600.13" y2="756.46"/>
    <line class="cls-2" x1="532.99" y1="756.46" x2="497.32" y2="756.46"/>
    <line class="cls-2" x1="495.22" y1="712.39" x2="495.22" y2="208.79"/>
    <line class="cls-2" x1="681.97" y1="846.69" x2="681.97" y2="897.05"/>
    <line class="cls-2" x1="1019.8" y1="871.87" x2="975.74" y2="871.87"/>
    <line class="cls-2" x1="646.3" y1="871.87" x2="690.36" y2="871.87"/>
    <line class="cls-2" x1="308.47" y1="208.79" x2="308.47" y2="712.39"/>
    <line class="cls-2" x1="375.61" y1="208.79" x2="375.61" y2="712.39"/>
  </g>
</svg>