<?xml version="1.0" encoding="UTF-8"?>
<svg id="In_x5F_Shelf_x5F_Dieline" xmlns="http://www.w3.org/2000/svg" viewBox="0 0 1024 1024">
  <defs>
    <style>
      .cls-1 {
        stroke-dasharray: 0 0;
      }

      .cls-1, .cls-2, .cls-3, .cls-4, .cls-5, .cls-6, .cls-7, .cls-8, .cls-9, .cls-10, .cls-11, .cls-12, .cls-13, .cls-14 {
        fill: none;
        stroke-width: .5px;
      }

      .cls-1, .cls-2, .cls-3, .cls-4, .cls-5, .cls-6, .cls-7, .cls-8, .cls-9, .cls-10, .cls-12, .cls-13, .cls-14 {
        stroke: #212020;
        stroke-miterlimit: 10;
      }

      .cls-2 {
        stroke-dasharray: .01 0;
      }

      .cls-3 {
        stroke-dasharray: 19.47 4.86 0 0;
      }

      .cls-4 {
        stroke-dasharray: 19.7 4.92 0 0;
      }

      .cls-5 {
        stroke-dasharray: 20.29 5.06 .01 0;
      }

      .cls-6 {
        stroke-dasharray: 18.13 4.52 0 0;
      }

      .cls-7 {
        stroke-dasharray: 19.7 4.92 0 0;
      }

      .cls-8 {
        stroke-dasharray: 0 0;
      }

      .cls-9 {
        stroke-dasharray: 0 0;
      }

      .cls-11 {
        stroke: #1c964d;
        stroke-linejoin: round;
      }

      .cls-12 {
        stroke-dasharray: 19.44 4.85 0 0;
      }

      .cls-13 {
        stroke-dasharray: 0 0;
      }

      .cls-14 {
        stroke-dasharray: 0 0;
      }
    </style>
  </defs>
  <g>
    <path class="cls-10" d="M811.85,593.47l-9.7-2.43.47-3.77,3.06-.82c2.24-.6,4.35-1.5,6.28-2.65"/>
    <path class="cls-13" d="M815.62,581.15s0,0,0,0"/>
    <path class="cls-6" d="M815.62,581.14c5.3-4.64,8.56-11.43,8.57-18.8v-86.96l-.36-1.18c-.38-1.24-.86-2.43-1.44-3.55"/>
    <path class="cls-10" d="M822.39,470.65c-1.55-2.99-3.79-5.54-6.52-7.45v-10"/>
    <line class="cls-9" x1="815.87" y1="448.34" x2="815.87" y2="448.33"/>
    <line class="cls-3" x1="815.87" y1="448.33" x2="815.87" y2="180.67"/>
    <polyline class="cls-10" points="815.87 180.67 815.87 170.67 820.03 170.67 820.03 160.67"/>
    <line class="cls-1" x1="820.03" y1="155.82" x2="820.03" y2="155.81"/>
    <line class="cls-12" x1="820.03" y1="155.81" x2="820.03" y2="10"/>
    <polyline class="cls-10" points="820.03 10 820.03 0 810.03 0"/>
    <line class="cls-14" x1="805.12" y1="0" x2="805.11" y2="0"/>
    <line class="cls-4" x1="805.11" y1="0" x2="213.97" y2="0"/>
    <polyline class="cls-10" points="213.97 0 203.97 0 203.97 10"/>
    <line class="cls-1" x1="203.97" y1="14.85" x2="203.97" y2="14.86"/>
    <line class="cls-12" x1="203.97" y1="14.86" x2="203.97" y2="160.67"/>
    <polyline class="cls-10" points="203.97 160.67 203.97 170.67 208.13 170.67 208.13 180.67"/>
    <line class="cls-9" x1="208.13" y1="185.52" x2="208.13" y2="185.53"/>
    <line class="cls-3" x1="208.13" y1="185.53" x2="208.13" y2="453.2"/>
    <path class="cls-10" d="M208.13,453.2v10c-2.73,1.91-4.98,4.47-6.52,7.45"/>
    <line class="cls-13" x1="199.96" y1="474.86" x2="199.96" y2="474.87"/>
    <path class="cls-6" d="M199.96,474.87l-.16.51v86.96c.01,8.94,4.81,17.04,12.24,21.46"/>
    <path class="cls-10" d="M212.04,583.8c1.93,1.15,4.03,2.05,6.28,2.65l3.06.82.47,3.77-9.7,2.43"/>
    <line class="cls-8" x1="207.38" y1="594.66" x2="207.37" y2="594.67"/>
    <path class="cls-7" d="M207.37,594.67l-36.4,9.1c-18.53,4.66-31.49,21.26-31.52,40.38v252.66c.02,9.61,3.37,18.98,9.43,26.38,6.07,7.4,14.6,12.52,24.03,14.43l39.98,8"/>
    <polyline class="cls-10" points="212.9 945.61 222.7 947.57 222.7 957.57"/>
    <line class="cls-2" x1="222.7" y1="962.64" x2="222.7" y2="962.65"/>
    <path class="cls-5" d="M222.7,962.65v36.4c.02,6.68,2.62,12.94,7.31,17.63,4.7,4.7,10.96,7.29,17.66,7.31h528.65c6.7-.02,12.97-2.62,17.66-7.31,4.7-4.7,7.29-10.96,7.31-17.63v-41.48"/>
    <polyline class="cls-10" points="801.3 957.57 801.3 947.57 811.1 945.61"/>
    <line class="cls-8" x1="815.92" y1="944.65" x2="815.93" y2="944.65"/>
    <path class="cls-7" d="M815.93,944.65l35.15-7.03c9.43-1.9,17.96-7.03,24.03-14.43,6.07-7.4,9.42-16.77,9.43-26.38v-252.66c-.03-19.12-12.99-35.72-31.52-40.38l-41.18-10.3"/>
  </g>
  <g>
    <path class="cls-11" d="M231.03,999.02c.03,9.23,7.42,16.62,16.65,16.65h264.33"/>
    <line class="cls-11" x1="512" y1="8.33" x2="212.29" y2="8.33"/>
    <line class="cls-11" x1="216.45" y1="162.34" x2="216.45" y2="368.39"/>
    <line class="cls-11" x1="231.03" y1="949.07" x2="231.03" y2="999.02"/>
    <line class="cls-11" x1="231.02" y1="610.86" x2="231.02" y2="627.51"/>
    <line class="cls-11" x1="231.02" y1="644.16" x2="231.02" y2="660.81"/>
    <line class="cls-11" x1="231.02" y1="677.46" x2="231.02" y2="694.11"/>
    <line class="cls-11" x1="231.02" y1="710.76" x2="231.02" y2="727.41"/>
    <line class="cls-11" x1="231.02" y1="744.07" x2="231.02" y2="760.72"/>
    <line class="cls-11" x1="231.03" y1="777.37" x2="231.03" y2="794.02"/>
    <line class="cls-11" x1="231.03" y1="810.67" x2="231.03" y2="827.32"/>
    <line class="cls-11" x1="231.03" y1="843.97" x2="231.03" y2="860.62"/>
    <line class="cls-11" x1="231.03" y1="877.27" x2="231.03" y2="893.92"/>
    <line class="cls-11" x1="231.03" y1="910.57" x2="231.03" y2="927.22"/>
    <path class="cls-11" d="M231.02,597.33l-58.03,14.51c-14.85,3.74-25.2,16.99-25.22,32.31v252.65c.03,15.91,11.17,29.51,26.77,32.66l56.48,11.29v8.33"/>
    <path class="cls-11" d="M231.02,597.33l-2.08-16.65-8.47-2.27c-7.29-1.96-12.33-8.53-12.34-16.08v-85.71"/>
    <path class="cls-11" d="M216.45,468.29c-3.99,1.21-7.11,4.33-8.33,8.33"/>
    <polyline class="cls-11" points="316.36 368.39 316.36 362.15 416.26 362.15"/>
    <line class="cls-11" x1="416.26" y1="362.15" x2="416.26" y2="368.39"/>
    <line class="cls-11" x1="776.33" y1="1015.67" x2="512" y2="1015.67"/>
    <line class="cls-11" x1="807.54" y1="368.39" x2="807.54" y2="468.29"/>
    <path class="cls-11" d="M792.98,949.07v49.95c-.03,9.23-7.42,16.62-16.65,16.65"/>
    <line class="cls-11" x1="792.97" y1="610.86" x2="792.97" y2="627.51"/>
    <line class="cls-11" x1="792.97" y1="644.16" x2="792.98" y2="660.81"/>
    <line class="cls-11" x1="792.98" y1="677.46" x2="792.98" y2="694.11"/>
    <line class="cls-11" x1="792.98" y1="710.76" x2="792.98" y2="727.41"/>
    <line class="cls-11" x1="792.98" y1="744.07" x2="792.98" y2="760.72"/>
    <line class="cls-11" x1="792.98" y1="777.37" x2="792.98" y2="794.02"/>
    <line class="cls-11" x1="792.98" y1="810.67" x2="792.98" y2="827.32"/>
    <line class="cls-11" x1="792.98" y1="843.97" x2="792.98" y2="860.62"/>
    <line class="cls-11" x1="792.98" y1="877.27" x2="792.98" y2="893.92"/>
    <line class="cls-11" x1="792.98" y1="910.57" x2="792.98" y2="927.22"/>
    <path class="cls-11" d="M792.97,597.33l58.03,14.51c14.85,3.74,25.2,16.99,25.22,32.31v252.65c-.02,15.91-11.17,29.51-26.77,32.65l-56.48,11.3v8.33"/>
    <path class="cls-11" d="M792.97,597.33l2.08-16.65,8.47-2.27c7.29-1.96,12.33-8.53,12.34-16.08v-85.71"/>
    <path class="cls-11" d="M807.54,468.29c3.99,1.21,7.11,4.33,8.33,8.32"/>
    <polyline class="cls-11" points="707.64 368.39 707.64 362.15 607.74 362.15"/>
    <line class="cls-11" x1="607.74" y1="362.15" x2="607.74" y2="368.39"/>
    <polyline class="cls-11" points="212.29 8.33 212.29 162.34 216.45 162.34"/>
    <line class="cls-11" x1="216.45" y1="368.39" x2="216.45" y2="468.29"/>
    <polyline class="cls-11" points="811.71 8.33 811.71 162.34 807.54 162.34"/>
    <line class="cls-11" x1="512" y1="8.33" x2="811.71" y2="8.33"/>
    <line class="cls-11" x1="807.54" y1="162.34" x2="807.54" y2="368.39"/>
    <polyline class="cls-11" points="416.26 580.68 316.36 580.68 316.36 591.09 416.26 591.09 416.26 580.68"/>
    <polyline class="cls-11" points="607.74 580.68 607.74 591.09 707.64 591.09 707.64 580.68 607.74 580.68"/>
    <polyline class="cls-11" points="445.4 184.19 578.6 184.19 578.6 192.52 445.4 192.52 445.4 184.19"/>
    <polyline class="cls-11" points="445.4 756.55 578.6 756.55 578.6 775.28 445.4 775.28 445.4 756.55"/>
    <path class="cls-11" d="M466.06,917.49c8.07-.03,14.54-6.5,14.57-14.57-.03-8.07-6.5-14.54-14.57-14.57-8.07.03-14.54,6.5-14.57,14.57.03,8.07,6.5,14.54,14.57,14.57"/>
    <path class="cls-11" d="M557.94,917.49c-8.07-.03-14.54-6.5-14.57-14.57.03-8.07,6.5-14.54,14.57-14.57,8.07.03,14.54,6.5,14.57,14.57-.03,8.07-6.5,14.54-14.57,14.57"/>
    <line class="cls-11" x1="231.03" y1="949.07" x2="512" y2="949.07"/>
    <line class="cls-11" x1="228.94" y1="580.68" x2="316.36" y2="580.68"/>
    <line class="cls-11" x1="208.13" y1="476.62" x2="509.92" y2="476.62"/>
    <line class="cls-11" x1="509.92" y1="468.29" x2="216.45" y2="468.29"/>
    <line class="cls-11" x1="216.45" y1="368.39" x2="316.36" y2="368.39"/>
    <line class="cls-11" x1="231.02" y1="597.33" x2="231.02" y2="610.86"/>
    <line class="cls-11" x1="231.02" y1="627.51" x2="231.02" y2="644.16"/>
    <line class="cls-11" x1="231.02" y1="660.81" x2="231.02" y2="677.46"/>
    <line class="cls-11" x1="231.02" y1="694.11" x2="231.02" y2="710.76"/>
    <line class="cls-11" x1="231.02" y1="727.41" x2="231.02" y2="744.07"/>
    <line class="cls-11" x1="231.02" y1="760.72" x2="231.03" y2="777.37"/>
    <line class="cls-11" x1="231.03" y1="794.02" x2="231.03" y2="810.67"/>
    <line class="cls-11" x1="231.03" y1="827.32" x2="231.03" y2="843.97"/>
    <line class="cls-11" x1="231.03" y1="860.62" x2="231.03" y2="877.27"/>
    <line class="cls-11" x1="231.03" y1="893.92" x2="231.03" y2="910.57"/>
    <line class="cls-11" x1="231.03" y1="927.22" x2="231.03" y2="940.75"/>
    <line class="cls-11" x1="416.26" y1="368.39" x2="509.92" y2="368.39"/>
    <line class="cls-11" x1="792.98" y1="949.07" x2="512" y2="949.07"/>
    <line class="cls-11" x1="795.06" y1="580.68" x2="707.64" y2="580.68"/>
    <line class="cls-11" x1="815.87" y1="476.62" x2="509.92" y2="476.62"/>
    <line class="cls-11" x1="509.92" y1="468.29" x2="807.54" y2="468.29"/>
    <line class="cls-11" x1="807.54" y1="368.39" x2="707.64" y2="368.39"/>
    <line class="cls-11" x1="792.97" y1="597.33" x2="792.97" y2="610.86"/>
    <line class="cls-11" x1="792.97" y1="627.51" x2="792.97" y2="644.16"/>
    <line class="cls-11" x1="792.98" y1="660.81" x2="792.98" y2="677.46"/>
    <line class="cls-11" x1="792.98" y1="694.11" x2="792.98" y2="710.76"/>
    <line class="cls-11" x1="792.98" y1="727.41" x2="792.98" y2="744.07"/>
    <line class="cls-11" x1="792.98" y1="760.72" x2="792.98" y2="777.37"/>
    <line class="cls-11" x1="792.98" y1="794.02" x2="792.98" y2="810.67"/>
    <line class="cls-11" x1="792.98" y1="827.32" x2="792.98" y2="843.97"/>
    <line class="cls-11" x1="792.98" y1="860.62" x2="792.98" y2="877.27"/>
    <line class="cls-11" x1="792.98" y1="893.92" x2="792.98" y2="910.57"/>
    <line class="cls-11" x1="792.98" y1="927.22" x2="792.98" y2="940.75"/>
    <line class="cls-11" x1="607.74" y1="368.39" x2="509.92" y2="368.39"/>
    <line class="cls-11" x1="416.26" y1="580.68" x2="509.92" y2="580.68"/>
    <line class="cls-11" x1="607.74" y1="580.68" x2="509.92" y2="580.68"/>
  </g>
</svg>