<?xml version="1.0" encoding="UTF-8"?>
<svg id="Out_x5F_Header" xmlns="http://www.w3.org/2000/svg" viewBox="0 0 1024 1024">
  <defs>
    <style>
      .cls-1 {
        stroke: #c4007a;
        stroke-linejoin: round;
      }

      .cls-1, .cls-2 {
        fill: none;
        stroke-width: .5px;
      }

      .cls-2 {
        stroke: #212020;
        stroke-dasharray: 20 5 0 0;
        stroke-miterlimit: 10;
      }
    </style>
  </defs>
  <path class="cls-2" d="M676.01,1024h-327.99c-10.78-.03-20.85-4.21-28.4-11.76-7.55-7.55-11.73-17.62-11.76-28.35v-4.6c-1.47,2.2-3.16,4.27-5.07,6.18-7.55,7.55-17.62,11.73-28.35,11.76H87.01c-17.95-.06-34.74-7.02-47.33-19.6-12.58-12.58-19.54-29.38-19.6-47.28v-87.05s-10.04,0-10.04,0V0h1003.92v843.3h-10.04v87.01c-.06,17.95-7.02,34.74-19.6,47.33-12.58,12.58-29.37,19.54-47.28,19.6h-187.49c-10.73-.03-20.8-4.21-28.35-11.76-1.91-1.91-3.6-3.98-5.07-6.18v4.56c-.03,10.78-4.21,20.85-11.76,28.4-7.55,7.55-17.62,11.73-28.35,11.76Z"/>
  <g>
    <line class="cls-1" x1="23.43" y1="13.39" x2="1000.57" y2="13.39"/>
    <path class="cls-1" d="M990.53,829.91v100.39c-.09,29.67-23.87,53.45-53.54,53.54h-187.4"/>
    <path class="cls-1" d="M87.01,983.84c-29.67-.09-53.45-23.87-53.54-53.54v-100.39"/>
    <polyline class="cls-1" points="23.43 13.39 23.43 829.91 33.47 829.91"/>
    <polyline class="cls-1" points="1000.57 13.39 1000.57 829.91 990.53 829.91"/>
    <path class="cls-1" d="M348.03,1010.61c-14.83-.05-26.72-11.94-26.77-26.77v-214.17"/>
    <path class="cls-1" d="M301.18,769.67v187.4c-.05,14.83-11.94,26.72-26.77,26.77H87.01"/>
    <path class="cls-1" d="M675.97,1010.61c14.83-.05,26.72-11.94,26.77-26.77v-214.17"/>
    <path class="cls-1" d="M722.82,769.67v187.4c.05,14.83,11.94,26.72,26.77,26.77"/>
    <line class="cls-1" x1="675.97" y1="1010.61" x2="348.03" y2="1010.61"/>
    <line class="cls-1" x1="274.41" y1="769.67" x2="348.03" y2="769.67"/>
    <line class="cls-1" x1="675.97" y1="769.67" x2="749.59" y2="769.67"/>
  </g>
</svg>