<?xml version="1.0" encoding="UTF-8"?>
<svg id="Out_x5F_Body_x5F_Dieline" xmlns="http://www.w3.org/2000/svg" viewBox="0 0 1024 1024">
  <defs>
    <style>
      .cls-1 {
        stroke: #1368ae;
      }

      .cls-1, .cls-2, .cls-3 {
        stroke-linejoin: round;
      }

      .cls-1, .cls-2, .cls-3, .cls-4 {
        fill: none;
        stroke-width: .5px;
      }

      .cls-2 {
        stroke: #c4007a;
      }

      .cls-3 {
        stroke: #dd911f;
      }

      .cls-5 {
        fill: #efefef;
      }

      .cls-4 {
        stroke: #212020;
        stroke-dasharray: 20 5 0 0;
        stroke-miterlimit: 10;
      }
    </style>
  </defs>
  <g>
    <rect class="cls-5" y="96.6" width="33.57" height="664.06"/>
    <rect class="cls-5" x="648.39" y="84.07" width="67.15" height="73.09"/>
    <rect class="cls-5" x="656.78" y="211.45" width="50.36" height="501.18"/>
  </g>
  <path class="cls-4" d="M348.33,946.51H33.57v-37.59h-13.58L0,898.98v-55.28l19.99-9.95h13.58v-73.09H0V96.6h33.57v-16.71h986.22v16.71h4.2v662.47l-4.2,2.09v80.95h-15.8l-13.58,6.76v49.88l-23.61,14.36h-133.77v-152.44h-10.13l-2.1-2.09h-109.47v-41.76h-58.75v41.76h-109.47l-2.1,2.09h-10.13v152.44h-133.76l-19.62-11.93-15.59,7.76h-13.58v37.59Z"/>
  <g>
    <polyline class="cls-2" points="1015.6 84.07 1015.6 100.78 1019.8 100.78"/>
    <polyline class="cls-2" points="965.63 908.92 837.24 908.92 837.24 756.48"/>
    <polyline class="cls-2" points="4.2 756.48 35.67 756.48 37.77 758.57"/>
    <line class="cls-2" x1="528.78" y1="84.07" x2="348.33" y2="84.07"/>
    <line class="cls-2" x1="344.13" y1="84.07" x2="344.13" y2="100.78"/>
    <line class="cls-2" x1="528.78" y1="84.07" x2="681.96" y2="84.07"/>
    <line class="cls-2" x1="528.78" y1="157.16" x2="681.96" y2="157.16"/>
    <line class="cls-2" x1="538" y1="207.28" x2="681.96" y2="207.28"/>
    <line class="cls-2" x1="681.96" y1="84.07" x2="681.96" y2="157.16"/>
    <line class="cls-2" x1="4.2" y1="100.78" x2="4.2" y2="756.48"/>
    <line class="cls-2" x1="344.13" y1="84.07" x2="37.77" y2="84.07"/>
    <line class="cls-2" x1="681.96" y1="211.45" x2="681.96" y2="689.66"/>
    <line class="cls-2" x1="528.78" y1="211.45" x2="681.96" y2="211.45"/>
    <line class="cls-2" x1="1019.8" y1="100.78" x2="1019.8" y2="756.48"/>
    <line class="cls-2" x1="835.14" y1="84.07" x2="681.96" y2="84.07"/>
    <line class="cls-2" x1="835.14" y1="157.16" x2="681.96" y2="157.16"/>
    <line class="cls-2" x1="825.92" y1="207.28" x2="681.96" y2="207.28"/>
    <line class="cls-2" x1="835.14" y1="211.45" x2="681.96" y2="211.45"/>
    <line class="cls-2" x1="835.14" y1="84.07" x2="1015.6" y2="84.07"/>
    <line class="cls-2" x1="681.96" y1="696.97" x2="681.96" y2="705.32"/>
    <path class="cls-2" d="M528.78,211.45c2.73-2.84,6.55-4.36,10.49-4.18"/>
    <path class="cls-2" d="M835.14,211.45c-2.73-2.84-6.55-4.36-10.49-4.18"/>
    <polyline class="cls-2" points="104.92 198.71 276.98 198.71 285.37 240.69 276.98 240.69"/>
    <line class="cls-2" x1="96.52" y1="240.69" x2="104.92" y2="198.71"/>
    <line class="cls-2" x1="104.92" y1="240.69" x2="96.52" y2="240.69"/>
    <polyline class="cls-2" points="113.31 207.28 268.59 207.28 276.98 240.69"/>
    <line class="cls-2" x1="104.92" y1="240.69" x2="113.31" y2="207.28"/>
    <polyline class="cls-2" points="344.13 942.33 37.77 942.33 37.77 904.75"/>
    <polyline class="cls-2" points="398.3 908.92 526.68 908.92 526.68 756.48"/>
    <line class="cls-2" x1="4.2" y1="846.28" x2="20.98" y2="837.92"/>
    <line class="cls-2" x1="35.52" y1="904.75" x2="20.98" y2="904.75"/>
    <line class="cls-2" x1="4.2" y1="896.39" x2="4.2" y2="846.28"/>
    <line class="cls-2" x1="37.77" y1="846.28" x2="39.87" y2="846.28"/>
    <line class="cls-2" x1="37.77" y1="837.92" x2="37.77" y2="758.57"/>
    <line class="cls-2" x1="20.98" y1="904.75" x2="4.2" y2="896.39"/>
    <line class="cls-2" x1="20.98" y1="837.92" x2="35.52" y2="837.92"/>
    <line class="cls-2" x1="377.7" y1="846.28" x2="360.92" y2="837.92"/>
    <line class="cls-2" x1="346.38" y1="904.75" x2="360.92" y2="904.75"/>
    <line class="cls-2" x1="377.7" y1="896.39" x2="377.7" y2="846.28"/>
    <line class="cls-2" x1="344.13" y1="837.92" x2="344.13" y2="756.48"/>
    <line class="cls-2" x1="360.92" y1="904.75" x2="377.7" y2="896.39"/>
    <line class="cls-2" x1="360.92" y1="837.92" x2="346.38" y2="837.92"/>
    <line class="cls-2" x1="344.13" y1="942.33" x2="344.13" y2="904.75"/>
    <line class="cls-2" x1="377.7" y1="896.39" x2="398.3" y2="908.92"/>
    <polyline class="cls-2" points="526.68 756.48 528.78 756.48 539.27 756.48"/>
    <line class="cls-2" x1="822.55" y1="754.39" x2="715.53" y2="754.39"/>
    <line class="cls-2" x1="541.37" y1="754.39" x2="648.39" y2="754.39"/>
    <line class="cls-2" x1="539.27" y1="756.48" x2="541.37" y2="754.39"/>
    <line class="cls-2" x1="824.65" y1="756.48" x2="822.55" y2="754.39"/>
    <polyline class="cls-2" points="344.13 756.48 348.33 758.57 348.33 837.92"/>
    <line class="cls-2" x1="1019.8" y1="756.48" x2="1015.6" y2="758.57"/>
    <polyline class="cls-2" points="348.33 84.07 348.33 100.78 344.13 100.78"/>
    <line class="cls-2" x1="4.2" y1="100.78" x2="37.77" y2="100.78"/>
    <line class="cls-2" x1="37.77" y1="84.07" x2="37.77" y2="100.78"/>
    <line class="cls-2" x1="837.24" y1="756.48" x2="824.65" y2="756.48"/>
    <line class="cls-2" x1="1015.6" y1="758.57" x2="1015.6" y2="837.92"/>
    <line class="cls-2" x1="986.22" y1="896.39" x2="965.63" y2="908.92"/>
    <line class="cls-2" x1="1003.01" y1="837.92" x2="1015.6" y2="837.92"/>
    <line class="cls-2" x1="986.22" y1="846.28" x2="1003.01" y2="837.92"/>
    <line class="cls-2" x1="986.22" y1="896.39" x2="986.22" y2="846.28"/>
    <line class="cls-2" x1="935.86" y1="760.66" x2="940.06" y2="756.48"/>
    <line class="cls-2" x1="872.91" y1="756.48" x2="877.11" y2="760.66"/>
    <line class="cls-2" x1="935.86" y1="760.66" x2="877.11" y2="760.66"/>
    <line class="cls-2" x1="428.06" y1="760.66" x2="423.87" y2="756.48"/>
    <line class="cls-2" x1="491.01" y1="756.48" x2="486.82" y2="760.66"/>
    <line class="cls-2" x1="428.06" y1="760.66" x2="486.82" y2="760.66"/>
    <line class="cls-2" x1="37.77" y1="837.92" x2="39.87" y2="846.28"/>
    <line class="cls-2" x1="37.77" y1="846.28" x2="35.52" y2="837.92"/>
    <line class="cls-2" x1="37.77" y1="896.39" x2="39.87" y2="896.39"/>
    <line class="cls-2" x1="37.77" y1="904.75" x2="39.87" y2="896.39"/>
    <line class="cls-2" x1="37.77" y1="896.39" x2="35.52" y2="904.75"/>
    <line class="cls-2" x1="344.13" y1="846.28" x2="342.03" y2="846.28"/>
    <line class="cls-2" x1="344.13" y1="837.92" x2="342.03" y2="846.28"/>
    <line class="cls-2" x1="344.13" y1="846.28" x2="346.38" y2="837.92"/>
    <line class="cls-2" x1="344.13" y1="896.39" x2="342.03" y2="896.39"/>
    <line class="cls-2" x1="344.13" y1="904.75" x2="342.03" y2="896.39"/>
    <line class="cls-2" x1="344.13" y1="896.39" x2="346.38" y2="904.75"/>
    <line class="cls-2" x1="648.39" y1="712.63" x2="648.39" y2="754.39"/>
    <line class="cls-2" x1="715.53" y1="712.63" x2="715.53" y2="754.39"/>
    <line class="cls-2" x1="648.39" y1="712.63" x2="715.53" y2="712.63"/>
    <line class="cls-3" x1="528.78" y1="756.48" x2="528.78" y2="712.63"/>
    <line class="cls-3" x1="528.78" y1="211.45" x2="528.78" y2="84.07"/>
    <line class="cls-3" x1="539.27" y1="756.48" x2="539.27" y2="211.45"/>
    <line class="cls-3" x1="532.98" y1="157.16" x2="532.98" y2="84.07"/>
    <line class="cls-3" x1="37.77" y1="758.57" x2="37.77" y2="100.78"/>
    <line class="cls-3" x1="824.65" y1="756.48" x2="824.65" y2="211.45"/>
    <line class="cls-3" x1="830.94" y1="157.16" x2="830.94" y2="84.07"/>
    <line class="cls-3" x1="1019.8" y1="756.48" x2="940.06" y2="756.48"/>
    <polyline class="cls-3" points="835.14 756.48 835.14 211.45 835.14 84.07"/>
    <line class="cls-3" x1="681.96" y1="689.66" x2="681.96" y2="696.97"/>
    <line class="cls-3" x1="681.96" y1="705.32" x2="681.96" y2="712.63"/>
    <line class="cls-3" x1="715.53" y1="84.07" x2="715.53" y2="157.16"/>
    <line class="cls-3" x1="707.14" y1="211.45" x2="707.14" y2="712.63"/>
    <line class="cls-3" x1="648.39" y1="84.07" x2="648.39" y2="157.16"/>
    <line class="cls-3" x1="656.78" y1="211.45" x2="656.78" y2="712.63"/>
    <line class="cls-3" x1="37.77" y1="758.57" x2="344.13" y2="758.57"/>
    <line class="cls-3" x1="39.87" y1="846.28" x2="39.87" y2="896.39"/>
    <line class="cls-3" x1="344.13" y1="100.78" x2="344.13" y2="756.48"/>
    <line class="cls-3" x1="872.91" y1="756.48" x2="837.24" y2="756.48"/>
    <line class="cls-3" x1="344.12" y1="756.48" x2="423.87" y2="756.48"/>
    <line class="cls-3" x1="491.01" y1="756.48" x2="526.68" y2="756.48"/>
    <line class="cls-3" x1="528.78" y1="712.63" x2="528.78" y2="211.45"/>
    <line class="cls-3" x1="342.03" y1="846.28" x2="342.03" y2="896.39"/>
    <line class="cls-3" x1="4.2" y1="871.33" x2="48.26" y2="871.33"/>
    <line class="cls-3" x1="377.7" y1="871.33" x2="333.64" y2="871.33"/>
    <line class="cls-3" x1="715.53" y1="211.45" x2="715.53" y2="712.63"/>
    <line class="cls-3" x1="648.39" y1="211.45" x2="648.39" y2="712.63"/>
    <line class="cls-1" x1="419.67" y1="211.45" x2="436.45" y2="211.45"/>
    <line class="cls-1" x1="419.67" y1="228.16" x2="419.67" y2="211.45"/>
    <line class="cls-1" x1="944.25" y1="211.45" x2="927.47" y2="211.45"/>
    <line class="cls-1" x1="944.25" y1="228.16" x2="944.25" y2="211.45"/>
    <line class="cls-1" x1="419.67" y1="719.94" x2="419.67" y2="703.23"/>
    <line class="cls-1" x1="944.25" y1="719.94" x2="944.25" y2="703.23"/>
  </g>
</svg>