<?xml version="1.0" encoding="UTF-8"?>
<svg xmlns="http://www.w3.org/2000/svg" version="1.1" viewBox="0 0 1052.3 1052.3">
  <defs>
    <style>
      .cls-1, .cls-2, .cls-3 {
        fill: none;
        stroke-miterlimit: 10;
        stroke-width: .5px;
      }

      .cls-1, .cls-3 {
        stroke: #1e7caf;
      }

      .cls-2 {
        stroke: #fff;
      }

      .cls-4 {
        fill: #212020;
      }

      .cls-3 {
        stroke-dasharray: 5 4 0 0;
      }
    </style>
  </defs>
  <!-- Generator: Adobe Illustrator 28.7.1, SVG Export Plug-In . SVG Version: 1.2.0 Build 142)  -->
  <g>
    <g id="Layer_1">
      <g>
        <path class="cls-4" d="M.2,0v1054.4h1052.1V0H.2ZM1041.7,866.3h-10.3v89.4c0,18.4-7.2,35.7-20.1,48.6-12.9,12.9-30.2,20.1-48.6,20.1h-192.6c-11,0-21.4-4.3-29.1-12.1s-3.7-4.1-5.2-6.3v4.7c0,11.1-4.3,21.4-12.1,29.2-7.8,7.8-18.1,12-29.1,12.1h-336.8c-11.1,0-21.4-4.3-29.2-12.1-7.8-7.8-12-18.1-12.1-29.1v-4.7c-1.5,2.3-3.2,4.4-5.2,6.3-7.8,7.8-18.1,12-29.1,12.1H89.7c-18.4,0-35.7-7.2-48.6-20.1-12.9-12.9-20.1-30.2-20.1-48.6v-89.4h-10.4V.2h1031.1v866.1Z"/>
        <g id="UV_In_Header">
          <path class="cls-1" d="M694.7,1052h-336.9c-11.1,0-21.4-4.3-29.2-12.1-7.8-7.8-12-18.1-12.1-29.1v-4.7c-1.5,2.3-3.2,4.4-5.2,6.3-7.8,7.8-18.1,12-29.1,12.1H89.7c-18.4,0-35.7-7.2-48.6-20.1-12.9-12.9-20.1-30.2-20.1-48.6v-89.4h-10.4V.2h1031.1v866.1h-10.3v89.4c0,18.4-7.2,35.7-20.1,48.6-12.9,12.9-30.2,20.1-48.6,20.1h-192.6c-11,0-21.4-4.3-29.1-12.1-7.7-7.8-3.7-4.1-5.2-6.3v4.7c0,11.1-4.3,21.4-12.1,29.2-7.8,7.8-18.1,12-29.1,12.1h0Z"/>
          <g>
            <line class="cls-2" x1="24.4" y1="14" x2="1028" y2="14"/>
            <path class="cls-2" d="M1017.7,852.6v103.1c0,30.5-24.5,54.9-55,55h-192.5"/>
            <path class="cls-2" d="M89.7,1010.7c-30.5,0-54.9-24.5-55-55v-103.1"/>
            <polyline class="cls-2" points="24.4 14 24.4 852.6 34.7 852.6"/>
            <polyline class="cls-2" points="1028 14 1028 852.6 1017.7 852.6"/>
            <path class="cls-2" d="M357.8,1038.2c-15.2,0-27.4-12.3-27.5-27.5v-220"/>
            <path class="cls-2" d="M309.7,790.8v192.5c0,15.2-12.3,27.4-27.5,27.5H89.7"/>
            <path class="cls-2" d="M694.6,1038.2c15.2,0,27.4-12.3,27.5-27.5v-220"/>
            <path class="cls-2" d="M742.7,790.8v192.5c0,15.2,12.3,27.4,27.5,27.5"/>
            <line class="cls-2" x1="694.6" y1="1038.2" x2="357.8" y2="1038.2"/>
            <line class="cls-2" x1="282.2" y1="790.8" x2="357.8" y2="790.8"/>
            <line class="cls-2" x1="694.6" y1="790.8" x2="770.2" y2="790.8"/>
          </g>
          <g>
            <line class="cls-3" x1="24.4" y1="14" x2="1028" y2="14"/>
            <path class="cls-3" d="M1017.7,852.6v103.1c0,30.5-24.5,54.9-55,55h-192.5"/>
            <path class="cls-3" d="M89.7,1010.7c-30.5,0-54.9-24.5-55-55v-103.1"/>
            <polyline class="cls-3" points="24.4 14 24.4 852.6 34.7 852.6"/>
            <polyline class="cls-3" points="1028 14 1028 852.6 1017.7 852.6"/>
            <path class="cls-3" d="M357.8,1038.2c-15.2,0-27.4-12.3-27.5-27.5v-220"/>
            <path class="cls-3" d="M309.7,790.8v192.5c0,15.2-12.3,27.4-27.5,27.5H89.7"/>
            <path class="cls-3" d="M694.6,1038.2c15.2,0,27.4-12.3,27.5-27.5v-220"/>
            <path class="cls-3" d="M742.7,790.8v192.5c0,15.2,12.3,27.4,27.5,27.5"/>
            <line class="cls-3" x1="694.6" y1="1038.2" x2="357.8" y2="1038.2"/>
            <line class="cls-3" x1="282.2" y1="790.8" x2="357.8" y2="790.8"/>
            <line class="cls-3" x1="694.6" y1="790.8" x2="770.2" y2="790.8"/>
          </g>
        </g>
      </g>
    </g>
  </g>
</svg>