<?xml version="1.0" encoding="UTF-8"?>
<svg xmlns="http://www.w3.org/2000/svg" version="1.1" viewBox="0 0 1032.9 1032.9">
  <defs>
    <style>
      .cls-1, .cls-2, .cls-3, .cls-4 {
        fill: none;
        stroke-miterlimit: 10;
        stroke-width: .5px;
      }

      .cls-1, .cls-4 {
        stroke: #1e7caf;
      }

      .cls-2 {
        stroke: #fff;
      }

      .cls-5 {
        fill: #212020;
      }

      .cls-3 {
        stroke: red;
      }

      .cls-3, .cls-4 {
        stroke-dasharray: 5 4 0 0;
      }
    </style>
  </defs>
  <!-- Generator: Adobe Illustrator 28.7.1, SVG Export Plug-In . SVG Version: 1.2.0 Build 142)  -->
  <g>
    <g id="Layer_1">
      <g id="UV_In_Body">
        <g>
          <polygon class="cls-5" points="999 917.5 999 955.6 681.5 955.6 681.5 917.5 667.8 917.5 652.1 909.6 632.3 921.7 497.4 921.7 497.4 767.2 487.2 767.2 485.1 765.1 374.7 765.1 374.7 722.8 315.4 722.8 315.4 765.1 205 765.1 202.9 767.2 192.7 767.2 192.7 921.7 57.7 921.7 33.9 907.1 33.9 856.5 20.2 849.7 4.2 849.7 4.2 767.7 0 765.6 0 1032.9 1032.9 1032.9 1032.9 907.4 1012.7 917.5 999 917.5"/>
          <polygon class="cls-5" points="999 841.3 1012.7 841.3 1032.9 851.4 1032.9 767.2 999 767.2 999 841.3"/>
          <polygon class="cls-5" points="0 0 0 94.1 4.2 94.1 4.2 77.2 999 77.2 999 94.1 1032.9 94.1 1032.9 0 0 0"/>
        </g>
        <g>
          <path class="cls-1" d="M681.5,917.5h-13.7l-15.7-7.9-19.8,12.1h-134.9v-154.5h-10.2l-2.1-2.1h-110.4v-42.3h-59.3v42.3h-110.4l-2.1,2.1h-10.2v154.5H57.7l-23.8-14.6v-50.6l-13.7-6.8H4.2v-82l-4.2-2.1V94.1h4.2v-16.9h994.8v16.9h33.9v673.1h-33.9v74.1h13.7l20.2,10.1v56l-20.2,10.1h-13.7v38.1h-317.5v-38.1h0Z"/>
          <g>
            <g>
              <polyline class="cls-2" points="8.5 81.4 8.5 98.4 4.2 98.4"/>
              <polyline class="cls-2" points="58.9 917.5 188.4 917.5 188.4 763"/>
              <polyline class="cls-2" points="1028.7 763 996.9 763 994.8 765.1"/>
              <line class="cls-2" x1="499.5" y1="81.4" x2="681.5" y2="81.4"/>
              <line class="cls-2" x1="685.8" y1="81.4" x2="685.8" y2="98.4"/>
              <line class="cls-2" x1="499.5" y1="81.4" x2="345" y2="81.4"/>
              <line class="cls-2" x1="499.5" y1="155.5" x2="345" y2="155.5"/>
              <line class="cls-2" x1="490.2" y1="206.3" x2="345" y2="206.3"/>
              <line class="cls-2" x1="345" y1="81.4" x2="345" y2="155.5"/>
              <line class="cls-2" x1="1028.7" y1="98.4" x2="1028.7" y2="763"/>
              <line class="cls-2" x1="685.8" y1="81.4" x2="994.8" y2="81.4"/>
              <line class="cls-2" x1="345" y1="210.6" x2="345" y2="695.3"/>
              <line class="cls-2" x1="499.5" y1="210.6" x2="345" y2="210.6"/>
              <line class="cls-2" x1="4.2" y1="98.4" x2="4.2" y2="763"/>
              <line class="cls-2" x1="190.5" y1="81.4" x2="345" y2="81.4"/>
              <line class="cls-2" x1="190.5" y1="155.5" x2="345" y2="155.5"/>
              <line class="cls-2" x1="199.8" y1="206.3" x2="345" y2="206.3"/>
              <line class="cls-2" x1="190.5" y1="210.6" x2="345" y2="210.6"/>
              <line class="cls-2" x1="190.5" y1="81.4" x2="8.5" y2="81.4"/>
              <line class="cls-2" x1="345" y1="702.7" x2="345" y2="711.1"/>
              <path class="cls-2" d="M499.5,210.6c-2.8-2.9-6.6-4.4-10.6-4.2"/>
              <path class="cls-2" d="M190.5,210.6c2.8-2.9,6.6-4.4,10.6-4.2"/>
              <polyline class="cls-2" points="927.1 197.6 753.5 197.6 745.1 240.2 753.5 240.2"/>
              <line class="cls-2" x1="935.6" y1="240.2" x2="927.1" y2="197.6"/>
              <line class="cls-2" x1="927.1" y1="240.2" x2="935.6" y2="240.2"/>
              <polyline class="cls-2" points="918.6 206.3 762 206.3 753.5 240.2"/>
              <line class="cls-2" x1="927.1" y1="240.2" x2="918.6" y2="206.3"/>
              <polyline class="cls-2" points="685.8 951.4 994.8 951.4 994.8 913.3"/>
              <polyline class="cls-2" points="631.1 917.5 501.6 917.5 501.6 763"/>
              <line class="cls-2" x1="1028.7" y1="854" x2="1011.7" y2="845.5"/>
              <line class="cls-2" x1="997.1" y1="913.3" x2="1011.7" y2="913.3"/>
              <line class="cls-2" x1="1028.7" y1="904.8" x2="1028.7" y2="854"/>
              <line class="cls-2" x1="994.8" y1="854" x2="992.7" y2="854"/>
              <line class="cls-2" x1="994.8" y1="845.5" x2="994.8" y2="765.1"/>
              <line class="cls-2" x1="1011.7" y1="913.3" x2="1028.7" y2="904.8"/>
              <line class="cls-2" x1="1011.7" y1="845.5" x2="997.1" y2="845.5"/>
              <line class="cls-2" x1="651.9" y1="854" x2="668.8" y2="845.5"/>
              <line class="cls-2" x1="683.5" y1="913.3" x2="668.8" y2="913.3"/>
              <line class="cls-2" x1="651.9" y1="904.8" x2="651.9" y2="854"/>
              <line class="cls-2" x1="685.8" y1="845.5" x2="685.8" y2="763"/>
              <line class="cls-2" x1="668.8" y1="913.3" x2="651.9" y2="904.8"/>
              <line class="cls-2" x1="668.8" y1="845.5" x2="683.5" y2="845.5"/>
              <line class="cls-2" x1="685.8" y1="951.4" x2="685.8" y2="913.3"/>
              <line class="cls-2" x1="651.9" y1="904.8" x2="631.1" y2="917.5"/>
              <polyline class="cls-2" points="501.6 763 499.5 763 488.9 763"/>
              <line class="cls-2" x1="203.2" y1="760.9" x2="311.2" y2="760.9"/>
              <line class="cls-2" x1="486.8" y1="760.9" x2="378.9" y2="760.9"/>
              <line class="cls-2" x1="488.9" y1="763" x2="486.8" y2="760.9"/>
              <line class="cls-2" x1="201.1" y1="763" x2="203.2" y2="760.9"/>
              <polyline class="cls-2" points="685.8 763 681.5 765.1 681.5 845.5"/>
              <line class="cls-2" x1="4.2" y1="763" x2="8.5" y2="765.1"/>
              <polyline class="cls-2" points="681.5 81.4 681.5 98.4 685.8 98.4"/>
              <line class="cls-2" x1="1028.7" y1="98.4" x2="994.8" y2="98.4"/>
              <line class="cls-2" x1="994.8" y1="81.4" x2="994.8" y2="98.4"/>
              <line class="cls-2" x1="188.4" y1="763" x2="201.1" y2="763"/>
              <line class="cls-2" x1="8.5" y1="765.1" x2="8.5" y2="845.5"/>
              <line class="cls-2" x1="38.1" y1="904.8" x2="58.9" y2="917.5"/>
              <line class="cls-2" x1="21.2" y1="845.5" x2="8.5" y2="845.5"/>
              <line class="cls-2" x1="38.1" y1="854" x2="21.2" y2="845.5"/>
              <line class="cls-2" x1="38.1" y1="904.8" x2="38.1" y2="854"/>
              <line class="cls-2" x1="88.9" y1="767.2" x2="84.7" y2="763"/>
              <line class="cls-2" x1="152.4" y1="763" x2="148.2" y2="767.2"/>
              <line class="cls-2" x1="88.9" y1="767.2" x2="148.2" y2="767.2"/>
              <line class="cls-2" x1="601.1" y1="767.2" x2="605.4" y2="763"/>
              <line class="cls-2" x1="537.6" y1="763" x2="541.9" y2="767.2"/>
              <line class="cls-2" x1="601.1" y1="767.2" x2="541.9" y2="767.2"/>
              <line class="cls-2" x1="994.8" y1="845.5" x2="992.7" y2="854"/>
              <line class="cls-2" x1="994.8" y1="854" x2="997.1" y2="845.5"/>
              <line class="cls-2" x1="994.8" y1="904.8" x2="992.7" y2="904.8"/>
              <line class="cls-2" x1="994.8" y1="913.3" x2="992.7" y2="904.8"/>
              <line class="cls-2" x1="994.8" y1="904.8" x2="997.1" y2="913.3"/>
              <line class="cls-2" x1="685.8" y1="854" x2="687.9" y2="854"/>
              <line class="cls-2" x1="685.8" y1="845.5" x2="687.9" y2="854"/>
              <line class="cls-2" x1="685.8" y1="854" x2="683.5" y2="845.5"/>
              <line class="cls-2" x1="685.8" y1="904.8" x2="687.9" y2="904.8"/>
              <line class="cls-2" x1="685.8" y1="913.3" x2="687.9" y2="904.8"/>
              <line class="cls-2" x1="685.8" y1="904.8" x2="683.5" y2="913.3"/>
              <line class="cls-2" x1="378.9" y1="718.5" x2="378.9" y2="760.9"/>
              <line class="cls-2" x1="311.2" y1="718.5" x2="311.2" y2="760.9"/>
              <line class="cls-2" x1="378.9" y1="718.5" x2="311.2" y2="718.5"/>
              <line class="cls-2" x1="345" y1="695.3" x2="345" y2="702.7"/>
              <line class="cls-2" x1="345" y1="711.1" x2="345" y2="718.5"/>
            </g>
            <g>
              <polyline class="cls-4" points="8.5 81.4 8.5 98.4 4.2 98.4"/>
              <polyline class="cls-4" points="58.9 917.5 188.4 917.5 188.4 763"/>
              <polyline class="cls-4" points="1028.7 763 996.9 763 994.8 765.1"/>
              <line class="cls-4" x1="499.5" y1="81.4" x2="681.5" y2="81.4"/>
              <line class="cls-4" x1="685.8" y1="81.4" x2="685.8" y2="98.4"/>
              <line class="cls-4" x1="499.5" y1="81.4" x2="345" y2="81.4"/>
              <line class="cls-4" x1="499.5" y1="155.5" x2="345" y2="155.5"/>
              <line class="cls-4" x1="490.2" y1="206.3" x2="345" y2="206.3"/>
              <line class="cls-4" x1="345" y1="81.4" x2="345" y2="155.5"/>
              <line class="cls-4" x1="1028.7" y1="98.4" x2="1028.7" y2="763"/>
              <line class="cls-4" x1="685.8" y1="81.4" x2="994.8" y2="81.4"/>
              <line class="cls-4" x1="345" y1="210.6" x2="345" y2="695.3"/>
              <line class="cls-4" x1="499.5" y1="210.6" x2="345" y2="210.6"/>
              <line class="cls-4" x1="4.2" y1="98.4" x2="4.2" y2="763"/>
              <line class="cls-4" x1="190.5" y1="81.4" x2="345" y2="81.4"/>
              <line class="cls-4" x1="190.5" y1="155.5" x2="345" y2="155.5"/>
              <line class="cls-4" x1="199.8" y1="206.3" x2="345" y2="206.3"/>
              <line class="cls-4" x1="190.5" y1="210.6" x2="345" y2="210.6"/>
              <line class="cls-4" x1="190.5" y1="81.4" x2="8.5" y2="81.4"/>
              <line class="cls-4" x1="345" y1="702.7" x2="345" y2="711.1"/>
              <path class="cls-4" d="M499.5,210.6c-2.8-2.9-6.6-4.4-10.6-4.2"/>
              <path class="cls-4" d="M190.5,210.6c2.8-2.9,6.6-4.4,10.6-4.2"/>
              <polyline class="cls-4" points="927.1 197.6 753.5 197.6 745.1 240.2 753.5 240.2"/>
              <line class="cls-4" x1="935.6" y1="240.2" x2="927.1" y2="197.6"/>
              <line class="cls-4" x1="927.1" y1="240.2" x2="935.6" y2="240.2"/>
              <polyline class="cls-4" points="918.6 206.3 762 206.3 753.5 240.2"/>
              <line class="cls-4" x1="927.1" y1="240.2" x2="918.6" y2="206.3"/>
              <polyline class="cls-4" points="685.8 951.4 994.8 951.4 994.8 913.3"/>
              <polyline class="cls-4" points="631.1 917.5 501.6 917.5 501.6 763"/>
              <line class="cls-4" x1="1028.7" y1="854" x2="1011.7" y2="845.5"/>
              <line class="cls-4" x1="997.1" y1="913.3" x2="1011.7" y2="913.3"/>
              <line class="cls-4" x1="1028.7" y1="904.8" x2="1028.7" y2="854"/>
              <line class="cls-4" x1="994.8" y1="854" x2="992.7" y2="854"/>
              <line class="cls-4" x1="994.8" y1="845.5" x2="994.8" y2="765.1"/>
              <line class="cls-4" x1="1011.7" y1="913.3" x2="1028.7" y2="904.8"/>
              <line class="cls-4" x1="1011.7" y1="845.5" x2="997.1" y2="845.5"/>
              <line class="cls-4" x1="651.9" y1="854" x2="668.8" y2="845.5"/>
              <line class="cls-4" x1="683.5" y1="913.3" x2="668.8" y2="913.3"/>
              <line class="cls-4" x1="651.9" y1="904.8" x2="651.9" y2="854"/>
              <line class="cls-4" x1="685.8" y1="845.5" x2="685.8" y2="763"/>
              <line class="cls-4" x1="668.8" y1="913.3" x2="651.9" y2="904.8"/>
              <line class="cls-4" x1="668.8" y1="845.5" x2="683.5" y2="845.5"/>
              <line class="cls-4" x1="685.8" y1="951.4" x2="685.8" y2="913.3"/>
              <line class="cls-4" x1="651.9" y1="904.8" x2="631.1" y2="917.5"/>
              <polyline class="cls-4" points="501.6 763 499.5 763 488.9 763"/>
              <line class="cls-4" x1="203.2" y1="760.9" x2="311.2" y2="760.9"/>
              <line class="cls-4" x1="486.8" y1="760.9" x2="378.9" y2="760.9"/>
              <line class="cls-4" x1="488.9" y1="763" x2="486.8" y2="760.9"/>
              <line class="cls-4" x1="201.1" y1="763" x2="203.2" y2="760.9"/>
              <polyline class="cls-4" points="685.8 763 681.5 765.1 681.5 845.5"/>
              <line class="cls-4" x1="4.2" y1="763" x2="8.5" y2="765.1"/>
              <polyline class="cls-4" points="681.5 81.4 681.5 98.4 685.8 98.4"/>
              <line class="cls-4" x1="1028.7" y1="98.4" x2="994.8" y2="98.4"/>
              <line class="cls-4" x1="994.8" y1="81.4" x2="994.8" y2="98.4"/>
              <line class="cls-4" x1="188.4" y1="763" x2="201.1" y2="763"/>
              <line class="cls-4" x1="8.5" y1="765.1" x2="8.5" y2="845.5"/>
              <line class="cls-4" x1="38.1" y1="904.8" x2="58.9" y2="917.5"/>
              <line class="cls-4" x1="21.2" y1="845.5" x2="8.5" y2="845.5"/>
              <line class="cls-4" x1="38.1" y1="854" x2="21.2" y2="845.5"/>
              <line class="cls-4" x1="38.1" y1="904.8" x2="38.1" y2="854"/>
              <line class="cls-4" x1="88.9" y1="767.2" x2="84.7" y2="763"/>
              <line class="cls-4" x1="152.4" y1="763" x2="148.2" y2="767.2"/>
              <line class="cls-4" x1="88.9" y1="767.2" x2="148.2" y2="767.2"/>
              <line class="cls-4" x1="601.1" y1="767.2" x2="605.4" y2="763"/>
              <line class="cls-4" x1="537.6" y1="763" x2="541.9" y2="767.2"/>
              <line class="cls-4" x1="601.1" y1="767.2" x2="541.9" y2="767.2"/>
              <line class="cls-4" x1="994.8" y1="845.5" x2="992.7" y2="854"/>
              <line class="cls-4" x1="994.8" y1="854" x2="997.1" y2="845.5"/>
              <line class="cls-4" x1="994.8" y1="904.8" x2="992.7" y2="904.8"/>
              <line class="cls-4" x1="994.8" y1="913.3" x2="992.7" y2="904.8"/>
              <line class="cls-4" x1="994.8" y1="904.8" x2="997.1" y2="913.3"/>
              <line class="cls-4" x1="685.8" y1="854" x2="687.9" y2="854"/>
              <line class="cls-4" x1="685.8" y1="845.5" x2="687.9" y2="854"/>
              <line class="cls-4" x1="685.8" y1="854" x2="683.5" y2="845.5"/>
              <line class="cls-4" x1="685.8" y1="904.8" x2="687.9" y2="904.8"/>
              <line class="cls-4" x1="685.8" y1="913.3" x2="687.9" y2="904.8"/>
              <line class="cls-4" x1="685.8" y1="904.8" x2="683.5" y2="913.3"/>
              <line class="cls-4" x1="378.9" y1="718.5" x2="378.9" y2="760.9"/>
              <line class="cls-4" x1="311.2" y1="718.5" x2="311.2" y2="760.9"/>
              <line class="cls-4" x1="378.9" y1="718.5" x2="311.2" y2="718.5"/>
              <line class="cls-4" x1="345" y1="695.3" x2="345" y2="702.7"/>
              <line class="cls-4" x1="345" y1="711.1" x2="345" y2="718.5"/>
            </g>
            <g>
              <line class="cls-2" x1="499.5" y1="210.6" x2="499.5" y2="155.5"/>
              <line class="cls-2" x1="488.9" y1="763" x2="488.9" y2="210.6"/>
              <line class="cls-2" x1="495.3" y1="155.5" x2="495.3" y2="81.4"/>
              <line class="cls-2" x1="994.8" y1="765.1" x2="994.8" y2="98.4"/>
              <line class="cls-2" x1="201.1" y1="763" x2="201.1" y2="210.6"/>
              <line class="cls-2" x1="194.7" y1="155.5" x2="194.7" y2="81.4"/>
              <line class="cls-2" x1="4.2" y1="763" x2="84.7" y2="763"/>
              <polyline class="cls-2" points="190.5 763 190.5 210.6 190.5 155.5"/>
              <line class="cls-2" x1="311.2" y1="81.4" x2="311.2" y2="155.5"/>
              <line class="cls-2" x1="319.6" y1="210.6" x2="319.6" y2="718.5"/>
              <line class="cls-2" x1="378.9" y1="81.4" x2="378.9" y2="155.5"/>
              <line class="cls-2" x1="370.4" y1="210.6" x2="370.4" y2="718.5"/>
              <line class="cls-2" x1="994.8" y1="765.1" x2="685.8" y2="765.1"/>
              <line class="cls-2" x1="992.7" y1="854" x2="992.7" y2="904.8"/>
              <line class="cls-2" x1="685.8" y1="98.4" x2="685.8" y2="763"/>
              <line class="cls-2" x1="152.4" y1="763" x2="188.4" y2="763"/>
              <line class="cls-2" x1="685.8" y1="763" x2="605.4" y2="763"/>
              <line class="cls-2" x1="537.6" y1="763" x2="501.6" y2="763"/>
              <line class="cls-2" x1="499.5" y1="763" x2="499.5" y2="210.6"/>
              <line class="cls-2" x1="687.9" y1="854" x2="687.9" y2="904.8"/>
              <line class="cls-2" x1="1028.7" y1="879.4" x2="984.2" y2="879.4"/>
              <line class="cls-2" x1="651.9" y1="879.4" x2="696.4" y2="879.4"/>
              <line class="cls-2" x1="311.2" y1="210.6" x2="311.2" y2="718.5"/>
              <line class="cls-2" x1="378.9" y1="210.6" x2="378.9" y2="718.5"/>
              <line class="cls-2" x1="190.5" y1="155.5" x2="190.5" y2="81.4"/>
              <line class="cls-2" x1="499.5" y1="155.5" x2="499.5" y2="81.4"/>
            </g>
            <g>
              <line class="cls-3" x1="499.5" y1="210.6" x2="499.5" y2="155.5"/>
              <line class="cls-3" x1="488.9" y1="763" x2="488.9" y2="210.6"/>
              <line class="cls-3" x1="495.3" y1="155.5" x2="495.3" y2="81.4"/>
              <line class="cls-3" x1="994.8" y1="765.1" x2="994.8" y2="98.4"/>
              <line class="cls-3" x1="201.1" y1="763" x2="201.1" y2="210.6"/>
              <line class="cls-3" x1="194.7" y1="155.5" x2="194.7" y2="81.4"/>
              <line class="cls-3" x1="4.2" y1="763" x2="84.7" y2="763"/>
              <polyline class="cls-3" points="190.5 763 190.5 210.6 190.5 155.5"/>
              <line class="cls-3" x1="311.2" y1="81.4" x2="311.2" y2="155.5"/>
              <line class="cls-3" x1="319.6" y1="210.6" x2="319.6" y2="718.5"/>
              <line class="cls-3" x1="378.9" y1="81.4" x2="378.9" y2="155.5"/>
              <line class="cls-3" x1="370.4" y1="210.6" x2="370.4" y2="718.5"/>
              <line class="cls-3" x1="994.8" y1="765.1" x2="685.8" y2="765.1"/>
              <line class="cls-3" x1="992.7" y1="854" x2="992.7" y2="904.8"/>
              <line class="cls-3" x1="685.8" y1="98.4" x2="685.8" y2="763"/>
              <line class="cls-3" x1="152.4" y1="763" x2="188.4" y2="763"/>
              <line class="cls-3" x1="685.8" y1="763" x2="605.4" y2="763"/>
              <line class="cls-3" x1="537.6" y1="763" x2="501.6" y2="763"/>
              <line class="cls-3" x1="499.5" y1="763" x2="499.5" y2="210.6"/>
              <line class="cls-3" x1="687.9" y1="854" x2="687.9" y2="904.8"/>
              <line class="cls-3" x1="1028.7" y1="879.4" x2="984.2" y2="879.4"/>
              <line class="cls-3" x1="651.9" y1="879.4" x2="696.4" y2="879.4"/>
              <line class="cls-3" x1="311.2" y1="210.6" x2="311.2" y2="718.5"/>
              <line class="cls-3" x1="378.9" y1="210.6" x2="378.9" y2="718.5"/>
              <line class="cls-3" x1="190.5" y1="155.5" x2="190.5" y2="81.4"/>
              <line class="cls-3" x1="499.5" y1="155.5" x2="499.5" y2="81.4"/>
            </g>
          </g>
        </g>
      </g>
    </g>
  </g>
</svg>