<?xml version="1.0" encoding="UTF-8"?>
<svg xmlns="http://www.w3.org/2000/svg" version="1.1" viewBox="0 0 1042.3 1042.3">
  <defs>
    <style>
      .cls-1, .cls-2, .cls-3, .cls-4 {
        fill: none;
        stroke-miterlimit: 10;
        stroke-width: .5px;
      }

      .cls-1, .cls-4 {
        stroke: #1e7caf;
      }

      .cls-2 {
        stroke: #fff;
      }

      .cls-5 {
        fill: #212020;
      }

      .cls-3 {
        stroke: red;
      }

      .cls-3, .cls-4 {
        stroke-dasharray: 5 4 0 0;
      }
    </style>
  </defs>
  <!-- Generator: Adobe Illustrator 28.7.1, SVG Export Plug-In . SVG Version: 1.2.0 Build 142)  -->
  <g>
    <g id="Layer_1">
      <g id="Layer_1-2" data-name="Layer_1">
        <g id="UV_Out_Shelf">
          <g>
            <path class="cls-5" d="M0,0v1042.3h1042.3V0H0ZM900.1,912.8c0,9.7-3.4,19.3-9.6,26.8-6.1,7.5-14.8,12.8-24.4,14.7l-35.8,7.2-15,2.8.2,52.4c0,6.7-2.6,13.1-7.4,17.9-4.8,4.7-11.2,7.4-18,7.4H252.2c-6.8,0-13.2-2.6-18-7.4-4.7-4.7-7.4-11.1-7.4-17.9v-52.4l-50.7-10c-9.5-2-18.2-7.2-24.4-14.7-6.2-7.5-9.6-17-9.6-26.8v-257.1c0-19.5,13.2-36.4,32.1-41.1l51.7-13-.5-3.8-3.1-.8c-2.3-.6-4.4-1.5-6.4-2.7-7.6-4.5-12.5-12.7-12.5-21.8v-88.5l.4-1.2c.4-1.3.9-2.5,1.5-3.6,1.6-3,3.9-5.7,6.6-7.7V174h-4.2V.2h626.8v173.7h-4.2v297.7c2.6,2,4.9,4.6,6.5,7.6h0c.6,1.1,1.1,2.3,1.5,3.6l.4,1.2v88.5h0c0,9.1-4.8,17.3-12.4,21.8h0c-2,1.2-4.1,2.1-6.4,2.7l-3.1.8-.5,3.8,9.9,2.5,41.8,10.5c18.9,4.8,32.1,21.6,32.1,41.1v257.1Z"/>
            <path class="cls-1" d="M207.7.2v173.7h4.2v297.6c-2.7,2-5,4.7-6.6,7.7-.6,1.1-1.1,2.3-1.5,3.6l-.4,1.2v88.5c0,9.1,4.9,17.3,12.5,21.8,2,1.2,4.1,2.1,6.4,2.7l3.1.8.5,3.8-51.7,13c-18.9,4.7-32,21.6-32.1,41.1v257.1c0,9.8,3.4,19.3,9.6,26.8,6.2,7.5,14.9,12.7,24.4,14.7l50.7,10v52.4c0,6.8,2.7,13.2,7.4,17.9,4.8,4.8,11.2,7.4,18,7.4h537.9c6.8,0,13.2-2.7,18-7.4,4.8-4.8,7.4-11.2,7.4-17.9l-.2-52.4,15-2.8,35.8-7.2c9.6-1.9,18.3-7.2,24.4-14.7,6.2-7.5,9.6-17.1,9.6-26.8v-257.1c0-19.5-13.2-36.3-32.1-41.1l-41.8-10.5-9.9-2.5.5-3.8,3.1-.8c2.3-.6,4.4-1.5,6.4-2.7h0c7.6-4.5,12.4-12.7,12.4-21.8h0v-88.5l-.4-1.2c-.4-1.3-.9-2.5-1.5-3.6h0c-1.6-3-3.9-5.6-6.6-7.6V173.9h4.3V.2H207.7Z"/>
            <g>
              <g>
                <path class="cls-2" d="M235.2,1016.8c0,9.4,7.5,16.9,16.9,16.9h268.9"/>
                <line class="cls-2" x1="521" y1="8.7" x2="216.2" y2="8.7"/>
                <line class="cls-2" x1="220.4" y1="165.4" x2="220.4" y2="375.3"/>
                <line class="cls-2" x1="235.2" y1="966" x2="235.2" y2="1016.8"/>
                <path class="cls-2" d="M235.2,608l-59,14.8c-15.1,3.8-25.6,17.3-25.7,32.9v257.1c0,16.2,11.4,30,27.2,33.2l57.5,11.5v8.5"/>
                <path class="cls-2" d="M235.2,608l-2.1-16.9-8.6-2.3c-7.4-2-12.5-8.7-12.6-16.4v-87.2"/>
                <path class="cls-2" d="M220.4,476.8c-4.1,1.2-7.2,4.4-8.5,8.5"/>
                <polyline class="cls-2" points="322 375.3 322 368.8 423.6 368.8"/>
                <line class="cls-2" x1="423.6" y1="368.8" x2="423.6" y2="375.3"/>
                <line class="cls-2" x1="790" y1="1033.6" x2="521" y2="1033.6"/>
                <line class="cls-2" x1="821.9" y1="375.3" x2="821.9" y2="476.8"/>
                <path class="cls-2" d="M807,966v50.8c0,9.4-7.5,16.9-16.9,16.9"/>
                <path class="cls-2" d="M807,608l59,14.8c15.1,3.8,25.6,17.3,25.7,32.9v257.1c0,16.2-11.4,30-27.2,33.2l-57.5,11.5v8.5"/>
                <path class="cls-2" d="M807,608l2.1-16.9,8.6-2.3c7.4-2,12.5-8.7,12.6-16.4v-87.2"/>
                <path class="cls-2" d="M821.9,476.8c4.1,1.2,7.2,4.4,8.5,8.5"/>
                <polyline class="cls-2" points="720 375.3 720 368.8 618.5 368.8"/>
                <line class="cls-2" x1="618.5" y1="368.8" x2="618.5" y2="375.3"/>
                <polyline class="cls-2" points="216.2 8.7 216.2 165.4 220.4 165.4"/>
                <line class="cls-2" x1="220.4" y1="375.3" x2="220.4" y2="476.8"/>
                <polyline class="cls-2" points="826 8.7 826 165.4 821.9 165.4"/>
                <line class="cls-2" x1="521" y1="8.7" x2="826" y2="8.7"/>
                <line class="cls-2" x1="821.9" y1="165.4" x2="821.9" y2="375.3"/>
                <polyline class="cls-2" points="423.6 591.1 322 591.1 322 601.6 423.6 601.6 423.6 591.1"/>
                <polyline class="cls-2" points="618.5 591.1 618.5 601.6 720 601.6 720 591.1 618.5 591.1"/>
                <polyline class="cls-2" points="453.3 187.7 588.9 187.7 588.9 196.2 453.3 196.2 453.3 187.7"/>
                <polyline class="cls-2" points="453.3 770 588.9 770 588.9 789.1 453.3 789.1 453.3 770"/>
                <path class="cls-2" d="M474.4,933.8c8.2,0,14.8-6.6,14.8-14.8s-6.6-14.8-14.8-14.8-14.8,6.6-14.8,14.8,6.6,14.8,14.8,14.8"/>
                <path class="cls-2" d="M567.9,933.8c-8.2,0-14.8-6.6-14.8-14.8s6.6-14.8,14.8-14.8,14.8,6.6,14.8,14.8-6.6,14.8-14.8,14.8"/>
              </g>
              <g>
                <path class="cls-4" d="M235.2,1016.8c0,9.4,7.5,16.9,16.9,16.9h268.9"/>
                <line class="cls-4" x1="521" y1="8.7" x2="216.2" y2="8.7"/>
                <line class="cls-4" x1="220.4" y1="165.4" x2="220.4" y2="375.3"/>
                <line class="cls-4" x1="235.2" y1="966" x2="235.2" y2="1016.8"/>
                <path class="cls-4" d="M235.2,608l-59,14.8c-15.1,3.8-25.6,17.3-25.7,32.9v257.1c0,16.2,11.4,30,27.2,33.2l57.5,11.5v8.5"/>
                <path class="cls-4" d="M235.2,608l-2.1-16.9-8.6-2.3c-7.4-2-12.5-8.7-12.6-16.4v-87.2"/>
                <path class="cls-4" d="M220.4,476.8c-4.1,1.2-7.2,4.4-8.5,8.5"/>
                <polyline class="cls-4" points="322 375.3 322 368.8 423.6 368.8"/>
                <line class="cls-4" x1="423.6" y1="368.8" x2="423.6" y2="375.3"/>
                <line class="cls-4" x1="790" y1="1033.6" x2="521" y2="1033.6"/>
                <line class="cls-4" x1="821.9" y1="375.3" x2="821.9" y2="476.8"/>
                <path class="cls-4" d="M807,966v50.8c0,9.4-7.5,16.9-16.9,16.9"/>
                <path class="cls-4" d="M807,608l59,14.8c15.1,3.8,25.6,17.3,25.7,32.9v257.1c0,16.2-11.4,30-27.2,33.2l-57.5,11.5v8.5"/>
                <path class="cls-4" d="M807,608l2.1-16.9,8.6-2.3c7.4-2,12.5-8.7,12.6-16.4v-87.2"/>
                <path class="cls-4" d="M821.9,476.8c4.1,1.2,7.2,4.4,8.5,8.5"/>
                <polyline class="cls-4" points="720 375.3 720 368.8 618.5 368.8"/>
                <line class="cls-4" x1="618.5" y1="368.8" x2="618.5" y2="375.3"/>
                <polyline class="cls-4" points="216.2 8.7 216.2 165.4 220.4 165.4"/>
                <line class="cls-4" x1="220.4" y1="375.3" x2="220.4" y2="476.8"/>
                <polyline class="cls-4" points="826 8.7 826 165.4 821.9 165.4"/>
                <line class="cls-4" x1="521" y1="8.7" x2="826" y2="8.7"/>
                <line class="cls-4" x1="821.9" y1="165.4" x2="821.9" y2="375.3"/>
                <polyline class="cls-4" points="423.6 591.1 322 591.1 322 601.6 423.6 601.6 423.6 591.1"/>
                <polyline class="cls-4" points="618.5 591.1 618.5 601.6 720 601.6 720 591.1 618.5 591.1"/>
                <polyline class="cls-4" points="453.3 187.7 588.9 187.7 588.9 196.2 453.3 196.2 453.3 187.7"/>
                <polyline class="cls-4" points="453.3 770 588.9 770 588.9 789.1 453.3 789.1 453.3 770"/>
                <path class="cls-4" d="M474.4,933.8c8.2,0,14.8-6.6,14.8-14.8s-6.6-14.8-14.8-14.8-14.8,6.6-14.8,14.8,6.6,14.8,14.8,14.8"/>
                <path class="cls-4" d="M567.9,933.8c-8.2,0-14.8-6.6-14.8-14.8s6.6-14.8,14.8-14.8,14.8,6.6,14.8,14.8-6.6,14.8-14.8,14.8"/>
              </g>
              <g>
                <line class="cls-2" x1="235.2" y1="966" x2="807" y2="966"/>
                <line class="cls-2" x1="233.1" y1="591.1" x2="322" y2="591.1"/>
                <line class="cls-2" x1="211.9" y1="485.3" x2="830.4" y2="485.3"/>
                <line class="cls-2" x1="821.9" y1="476.8" x2="220.4" y2="476.8"/>
                <line class="cls-2" x1="220.4" y1="375.3" x2="322" y2="375.3"/>
                <line class="cls-2" x1="235.2" y1="608" x2="235.2" y2="957.5"/>
                <line class="cls-2" x1="423.6" y1="375.3" x2="618.5" y2="375.3"/>
                <line class="cls-2" x1="809" y1="591.1" x2="720" y2="591.1"/>
                <line class="cls-2" x1="821.9" y1="375.3" x2="720" y2="375.3"/>
                <line class="cls-2" x1="807" y1="608" x2="807" y2="957.5"/>
                <line class="cls-2" x1="618.5" y1="591.1" x2="423.6" y2="591.1"/>
              </g>
              <g>
                <line class="cls-3" x1="235.2" y1="966" x2="807" y2="966"/>
                <line class="cls-3" x1="233.1" y1="591.1" x2="322" y2="591.1"/>
                <line class="cls-3" x1="211.9" y1="485.3" x2="830.4" y2="485.3"/>
                <line class="cls-3" x1="821.9" y1="476.8" x2="220.4" y2="476.8"/>
                <line class="cls-3" x1="220.4" y1="375.3" x2="322" y2="375.3"/>
                <line class="cls-3" x1="235.2" y1="608" x2="235.2" y2="957.5"/>
                <line class="cls-3" x1="423.6" y1="375.3" x2="618.5" y2="375.3"/>
                <line class="cls-3" x1="809" y1="591.1" x2="720" y2="591.1"/>
                <line class="cls-3" x1="821.9" y1="375.3" x2="720" y2="375.3"/>
                <line class="cls-3" x1="807" y1="608" x2="807" y2="957.5"/>
                <line class="cls-3" x1="618.5" y1="591.1" x2="423.6" y2="591.1"/>
              </g>
            </g>
          </g>
        </g>
      </g>
    </g>
  </g>
</svg>