<?xml version="1.0" encoding="UTF-8"?>
<svg xmlns="http://www.w3.org/2000/svg" version="1.1" viewBox="0 0 1032.9 1032.9">
  <defs>
    <style>
      .cls-1, .cls-2, .cls-3, .cls-4, .cls-5 {
        fill: none;
        stroke-width: .5px;
      }

      .cls-1, .cls-2, .cls-3, .cls-5 {
        stroke-miterlimit: 10;
      }

      .cls-1, .cls-5 {
        stroke: #1e7caf;
      }

      .cls-2 {
        stroke: #fff;
      }

      .cls-6 {
        fill: #212020;
      }

      .cls-3 {
        stroke: red;
      }

      .cls-3, .cls-5 {
        stroke-dasharray: 5 4 0 0;
      }

      .cls-4 {
        stroke: #1368ae;
        stroke-linejoin: round;
      }
    </style>
  </defs>
  <!-- Generator: Adobe Illustrator 28.7.1, SVG Export Plug-In . SVG Version: 1.2.0 Build 142)  -->
  <g>
    <g id="Layer_1">
      <g id="Layer_1-2" data-name="Layer_1">
        <g id="Out_Body">
          <g>
            <g>
              <polygon class="cls-6" points="34.1 841.8 34.1 768.1 .3 768.1 .3 851.8 20.5 841.8 34.1 841.8"/>
              <polygon class="cls-6" points=".3 .2 .3 94.3 34 94.3 34 77.5 1028.5 77.5 1028.5 94.2 1032.6 94.2 1032.6 .2 .3 .2"/>
              <polygon class="cls-6" points="1028.5 850 1012.5 850 998.8 856.8 998.8 907.1 975 921.6 840.1 921.6 840.1 767.9 829.9 767.9 827.8 765.8 717.4 765.8 717.4 723.7 658.2 723.7 658.2 765.8 547.8 765.8 545.7 767.9 535.5 767.9 535.5 921.6 400.6 921.6 380.8 909.6 365.1 917.4 351.4 917.4 351.4 955.3 351.5 955.3 351.5 955.5 34.1 955.5 34.1 917.5 20.5 917.5 .3 907.5 .3 1032.6 1032.6 1032.6 1032.6 766.3 1028.5 768.4 1028.5 850"/>
            </g>
            <path class="cls-1" d="M351.5,955.5H34.1v-37.9h-13.7l-20.2-10v-55.7l20.2-10h13.7v-73.7H.2V94.3h33.8v-16.9h994.4v16.8h4.2v672.1l-4.2,2.1v81.6h-15.9l-13.7,6.8v50.3l-23.8,14.5h-134.9v-153.7h-10.2l-2.1-2.1h-110.4v-42.1h-59.2v42.1h-110.4l-2.1,2.1h-10.2v153.7h-134.9l-19.8-12-15.7,7.8h-13.7v37.9h.1Z"/>
            <g>
              <g>
                <polyline class="cls-2" points="1024.4 81.7 1024.4 98.5 1028.5 98.5"/>
                <polyline class="cls-2" points="974 917.5 844.5 917.5 844.5 763.8"/>
                <polyline class="cls-2" points="4.5 763.8 36.3 763.8 38.3 766"/>
                <line class="cls-2" x1="533.5" y1="81.7" x2="351.5" y2="81.7"/>
                <line class="cls-2" x1="347.3" y1="81.7" x2="347.3" y2="98.5"/>
                <line class="cls-2" x1="533.5" y1="81.7" x2="688" y2="81.7"/>
                <line class="cls-2" x1="533.5" y1="155.4" x2="688" y2="155.4"/>
                <line class="cls-2" x1="542.8" y1="205.9" x2="688" y2="205.9"/>
                <line class="cls-2" x1="688" y1="81.7" x2="688" y2="155.4"/>
                <line class="cls-2" x1="4.5" y1="98.5" x2="4.5" y2="763.8"/>
                <line class="cls-2" x1="347.3" y1="81.7" x2="38.3" y2="81.7"/>
                <line class="cls-2" x1="688" y1="210.1" x2="688" y2="696.5"/>
                <line class="cls-2" x1="533.5" y1="210.1" x2="688" y2="210.1"/>
                <line class="cls-2" x1="1028.5" y1="98.5" x2="1028.5" y2="763.8"/>
                <line class="cls-2" x1="842.3" y1="81.7" x2="688" y2="81.7"/>
                <line class="cls-2" x1="842.3" y1="155.4" x2="688" y2="155.4"/>
                <line class="cls-2" x1="833" y1="205.9" x2="688" y2="205.9"/>
                <line class="cls-2" x1="842.3" y1="210.1" x2="688" y2="210.1"/>
                <line class="cls-2" x1="842.3" y1="81.7" x2="1024.4" y2="81.7"/>
                <line class="cls-2" x1="688" y1="703.8" x2="688" y2="712.2"/>
                <path class="cls-2" d="M533.5,210.1c2.8-2.9,6.6-4.4,10.6-4.2"/>
                <path class="cls-2" d="M842.3,210.1c-2.8-2.9-6.6-4.4-10.6-4.2"/>
                <polyline class="cls-2" points="106 197.3 279.5 197.3 288 239.6 279.5 239.6"/>
                <line class="cls-2" x1="97.6" y1="239.6" x2="106" y2="197.3"/>
                <line class="cls-2" x1="106" y1="239.6" x2="97.6" y2="239.6"/>
                <polyline class="cls-2" points="114.5 205.9 271.2 205.9 279.5 239.6"/>
                <line class="cls-2" x1="106" y1="239.6" x2="114.5" y2="205.9"/>
                <polyline class="cls-2" points="347.3 951.2 38.3 951.2 38.3 913.3"/>
                <polyline class="cls-2" points="401.9 917.5 531.3 917.5 531.3 763.8"/>
                <line class="cls-2" x1="4.5" y1="854.3" x2="21.4" y2="846"/>
                <line class="cls-2" x1="36.1" y1="913.3" x2="21.4" y2="913.3"/>
                <line class="cls-2" x1="4.5" y1="904.8" x2="4.5" y2="854.3"/>
                <line class="cls-2" x1="38.3" y1="854.3" x2="40.5" y2="854.3"/>
                <line class="cls-2" x1="38.3" y1="846" x2="38.3" y2="766"/>
                <line class="cls-2" x1="21.4" y1="913.3" x2="4.5" y2="904.8"/>
                <line class="cls-2" x1="21.4" y1="846" x2="36.1" y2="846"/>
                <line class="cls-2" x1="381.2" y1="854.3" x2="364.3" y2="846"/>
                <line class="cls-2" x1="349.5" y1="913.3" x2="364.3" y2="913.3"/>
                <line class="cls-2" x1="381.2" y1="904.8" x2="381.2" y2="854.3"/>
                <line class="cls-2" x1="347.3" y1="846" x2="347.3" y2="763.8"/>
                <line class="cls-2" x1="364.3" y1="913.3" x2="381.2" y2="904.8"/>
                <line class="cls-2" x1="364.3" y1="846" x2="349.5" y2="846"/>
                <line class="cls-2" x1="347.3" y1="951.2" x2="347.3" y2="913.3"/>
                <line class="cls-2" x1="381.2" y1="904.8" x2="401.9" y2="917.5"/>
                <polyline class="cls-2" points="531.3 763.8 533.5 763.8 544 763.8"/>
                <line class="cls-2" x1="829.6" y1="761.7" x2="721.8" y2="761.7"/>
                <line class="cls-2" x1="546.1" y1="761.7" x2="654" y2="761.7"/>
                <line class="cls-2" x1="544" y1="763.8" x2="546.1" y2="761.7"/>
                <line class="cls-2" x1="831.8" y1="763.8" x2="829.6" y2="761.7"/>
                <polyline class="cls-2" points="347.3 763.8 351.5 766 351.5 846"/>
                <line class="cls-2" x1="1028.5" y1="763.8" x2="1024.4" y2="766"/>
                <polyline class="cls-2" points="351.5 81.7 351.5 98.5 347.3 98.5"/>
                <line class="cls-2" x1="4.5" y1="98.5" x2="38.3" y2="98.5"/>
                <line class="cls-2" x1="38.3" y1="81.7" x2="38.3" y2="98.5"/>
                <line class="cls-2" x1="844.5" y1="763.8" x2="831.8" y2="763.8"/>
                <line class="cls-2" x1="1024.4" y1="766" x2="1024.4" y2="846"/>
                <line class="cls-2" x1="994.8" y1="904.8" x2="974" y2="917.5"/>
                <line class="cls-2" x1="1011.6" y1="846" x2="1024.4" y2="846"/>
                <line class="cls-2" x1="994.8" y1="854.3" x2="1011.6" y2="846"/>
                <line class="cls-2" x1="994.8" y1="904.8" x2="994.8" y2="854.3"/>
                <line class="cls-2" x1="944" y1="768" x2="948.1" y2="763.8"/>
                <line class="cls-2" x1="880.5" y1="763.8" x2="884.8" y2="768"/>
                <line class="cls-2" x1="944" y1="768" x2="884.8" y2="768"/>
                <line class="cls-2" x1="431.9" y1="768" x2="427.7" y2="763.8"/>
                <line class="cls-2" x1="495.3" y1="763.8" x2="491.2" y2="768"/>
                <line class="cls-2" x1="431.9" y1="768" x2="491.2" y2="768"/>
                <line class="cls-2" x1="38.3" y1="846" x2="40.5" y2="854.3"/>
                <line class="cls-2" x1="38.3" y1="854.3" x2="36.1" y2="846"/>
                <line class="cls-2" x1="38.3" y1="904.8" x2="40.5" y2="904.8"/>
                <line class="cls-2" x1="38.3" y1="913.3" x2="40.5" y2="904.8"/>
                <line class="cls-2" x1="38.3" y1="904.8" x2="36.1" y2="913.3"/>
                <line class="cls-2" x1="347.3" y1="854.3" x2="345.2" y2="854.3"/>
                <line class="cls-2" x1="347.3" y1="846" x2="345.2" y2="854.3"/>
                <line class="cls-2" x1="347.3" y1="854.3" x2="349.5" y2="846"/>
                <line class="cls-2" x1="347.3" y1="904.8" x2="345.2" y2="904.8"/>
                <line class="cls-2" x1="347.3" y1="913.3" x2="345.2" y2="904.8"/>
                <line class="cls-2" x1="347.3" y1="904.8" x2="349.5" y2="913.3"/>
                <line class="cls-2" x1="654" y1="719.7" x2="654" y2="761.7"/>
                <line class="cls-2" x1="721.8" y1="719.7" x2="721.8" y2="761.7"/>
                <line class="cls-2" x1="654" y1="719.7" x2="721.8" y2="719.7"/>
                <line class="cls-2" x1="688" y1="696.5" x2="688" y2="703.8"/>
                <line class="cls-2" x1="688" y1="712.2" x2="688" y2="719.7"/>
              </g>
              <g>
                <polyline class="cls-5" points="1024.4 81.7 1024.4 98.5 1028.5 98.5"/>
                <polyline class="cls-5" points="974 917.5 844.5 917.5 844.5 763.8"/>
                <polyline class="cls-5" points="4.5 763.8 36.3 763.8 38.3 766"/>
                <line class="cls-5" x1="533.5" y1="81.7" x2="351.5" y2="81.7"/>
                <line class="cls-5" x1="347.3" y1="81.7" x2="347.3" y2="98.5"/>
                <line class="cls-5" x1="533.5" y1="81.7" x2="688" y2="81.7"/>
                <line class="cls-5" x1="533.5" y1="155.4" x2="688" y2="155.4"/>
                <line class="cls-5" x1="542.8" y1="205.9" x2="688" y2="205.9"/>
                <line class="cls-5" x1="688" y1="81.7" x2="688" y2="155.4"/>
                <line class="cls-5" x1="4.5" y1="98.5" x2="4.5" y2="763.8"/>
                <line class="cls-5" x1="347.3" y1="81.7" x2="38.3" y2="81.7"/>
                <line class="cls-5" x1="688" y1="210.1" x2="688" y2="696.5"/>
                <line class="cls-5" x1="533.5" y1="210.1" x2="688" y2="210.1"/>
                <line class="cls-5" x1="1028.5" y1="98.5" x2="1028.5" y2="763.8"/>
                <line class="cls-5" x1="842.3" y1="81.7" x2="688" y2="81.7"/>
                <line class="cls-5" x1="842.3" y1="155.4" x2="688" y2="155.4"/>
                <line class="cls-5" x1="833" y1="205.9" x2="688" y2="205.9"/>
                <line class="cls-5" x1="842.3" y1="210.1" x2="688" y2="210.1"/>
                <line class="cls-5" x1="842.3" y1="81.7" x2="1024.4" y2="81.7"/>
                <line class="cls-5" x1="688" y1="703.8" x2="688" y2="712.2"/>
                <path class="cls-5" d="M533.5,210.1c2.8-2.9,6.6-4.4,10.6-4.2"/>
                <path class="cls-5" d="M842.3,210.1c-2.8-2.9-6.6-4.4-10.6-4.2"/>
                <polyline class="cls-5" points="106 197.3 279.5 197.3 288 239.6 279.5 239.6"/>
                <line class="cls-5" x1="97.6" y1="239.6" x2="106" y2="197.3"/>
                <line class="cls-5" x1="106" y1="239.6" x2="97.6" y2="239.6"/>
                <polyline class="cls-5" points="114.5 205.9 271.2 205.9 279.5 239.6"/>
                <line class="cls-5" x1="106" y1="239.6" x2="114.5" y2="205.9"/>
                <polyline class="cls-5" points="347.3 951.2 38.3 951.2 38.3 913.3"/>
                <polyline class="cls-5" points="401.9 917.5 531.3 917.5 531.3 763.8"/>
                <line class="cls-5" x1="4.5" y1="854.3" x2="21.4" y2="846"/>
                <line class="cls-5" x1="36.1" y1="913.3" x2="21.4" y2="913.3"/>
                <line class="cls-5" x1="4.5" y1="904.8" x2="4.5" y2="854.3"/>
                <line class="cls-5" x1="38.3" y1="854.3" x2="40.5" y2="854.3"/>
                <line class="cls-5" x1="38.3" y1="846" x2="38.3" y2="766"/>
                <line class="cls-5" x1="21.4" y1="913.3" x2="4.5" y2="904.8"/>
                <line class="cls-5" x1="21.4" y1="846" x2="36.1" y2="846"/>
                <line class="cls-5" x1="381.2" y1="854.3" x2="364.3" y2="846"/>
                <line class="cls-5" x1="349.5" y1="913.3" x2="364.3" y2="913.3"/>
                <line class="cls-5" x1="381.2" y1="904.8" x2="381.2" y2="854.3"/>
                <line class="cls-5" x1="347.3" y1="846" x2="347.3" y2="763.8"/>
                <line class="cls-5" x1="364.3" y1="913.3" x2="381.2" y2="904.8"/>
                <line class="cls-5" x1="364.3" y1="846" x2="349.5" y2="846"/>
                <line class="cls-5" x1="347.3" y1="951.2" x2="347.3" y2="913.3"/>
                <line class="cls-5" x1="381.2" y1="904.8" x2="401.9" y2="917.5"/>
                <polyline class="cls-5" points="531.3 763.8 533.5 763.8 544 763.8"/>
                <line class="cls-5" x1="829.6" y1="761.7" x2="721.8" y2="761.7"/>
                <line class="cls-5" x1="546.1" y1="761.7" x2="654" y2="761.7"/>
                <line class="cls-5" x1="544" y1="763.8" x2="546.1" y2="761.7"/>
                <line class="cls-5" x1="831.8" y1="763.8" x2="829.6" y2="761.7"/>
                <polyline class="cls-5" points="347.3 763.8 351.5 766 351.5 846"/>
                <line class="cls-5" x1="1028.5" y1="763.8" x2="1024.4" y2="766"/>
                <polyline class="cls-5" points="351.5 81.7 351.5 98.5 347.3 98.5"/>
                <line class="cls-5" x1="4.5" y1="98.5" x2="38.3" y2="98.5"/>
                <line class="cls-5" x1="38.3" y1="81.7" x2="38.3" y2="98.5"/>
                <line class="cls-5" x1="844.5" y1="763.8" x2="831.8" y2="763.8"/>
                <line class="cls-5" x1="1024.4" y1="766" x2="1024.4" y2="846"/>
                <line class="cls-5" x1="994.8" y1="904.8" x2="974" y2="917.5"/>
                <line class="cls-5" x1="1011.6" y1="846" x2="1024.4" y2="846"/>
                <line class="cls-5" x1="994.8" y1="854.3" x2="1011.6" y2="846"/>
                <line class="cls-5" x1="994.8" y1="904.8" x2="994.8" y2="854.3"/>
                <line class="cls-5" x1="944" y1="768" x2="948.1" y2="763.8"/>
                <line class="cls-5" x1="880.5" y1="763.8" x2="884.8" y2="768"/>
                <line class="cls-5" x1="944" y1="768" x2="884.8" y2="768"/>
                <line class="cls-5" x1="431.9" y1="768" x2="427.7" y2="763.8"/>
                <line class="cls-5" x1="495.3" y1="763.8" x2="491.2" y2="768"/>
                <line class="cls-5" x1="431.9" y1="768" x2="491.2" y2="768"/>
                <line class="cls-5" x1="38.3" y1="846" x2="40.5" y2="854.3"/>
                <line class="cls-5" x1="38.3" y1="854.3" x2="36.1" y2="846"/>
                <line class="cls-5" x1="38.3" y1="904.8" x2="40.5" y2="904.8"/>
                <line class="cls-5" x1="38.3" y1="913.3" x2="40.5" y2="904.8"/>
                <line class="cls-5" x1="38.3" y1="904.8" x2="36.1" y2="913.3"/>
                <line class="cls-5" x1="347.3" y1="854.3" x2="345.2" y2="854.3"/>
                <line class="cls-5" x1="347.3" y1="846" x2="345.2" y2="854.3"/>
                <line class="cls-5" x1="347.3" y1="854.3" x2="349.5" y2="846"/>
                <line class="cls-5" x1="347.3" y1="904.8" x2="345.2" y2="904.8"/>
                <line class="cls-5" x1="347.3" y1="913.3" x2="345.2" y2="904.8"/>
                <line class="cls-5" x1="347.3" y1="904.8" x2="349.5" y2="913.3"/>
                <line class="cls-5" x1="654" y1="719.7" x2="654" y2="761.7"/>
                <line class="cls-5" x1="721.8" y1="719.7" x2="721.8" y2="761.7"/>
                <line class="cls-5" x1="654" y1="719.7" x2="721.8" y2="719.7"/>
                <line class="cls-5" x1="688" y1="696.5" x2="688" y2="703.8"/>
                <line class="cls-5" x1="688" y1="712.2" x2="688" y2="719.7"/>
              </g>
              <g>
                <line class="cls-2" x1="533.5" y1="763.8" x2="533.5" y2="719.7"/>
                <line class="cls-2" x1="533.5" y1="210.1" x2="533.5" y2="81.7"/>
                <line class="cls-2" x1="544" y1="763.8" x2="544" y2="210.1"/>
                <line class="cls-2" x1="537.8" y1="155.4" x2="537.8" y2="81.7"/>
                <line class="cls-2" x1="38.3" y1="766" x2="38.3" y2="98.5"/>
                <line class="cls-2" x1="831.8" y1="763.8" x2="831.8" y2="210.1"/>
                <line class="cls-2" x1="838.1" y1="155.4" x2="838.1" y2="81.7"/>
                <line class="cls-2" x1="1028.5" y1="763.8" x2="948.1" y2="763.8"/>
                <polyline class="cls-2" points="842.3 763.8 842.3 210.1 842.3 81.7"/>
                <line class="cls-2" x1="721.8" y1="81.7" x2="721.8" y2="155.4"/>
                <line class="cls-2" x1="713.3" y1="210.1" x2="713.3" y2="719.7"/>
                <line class="cls-2" x1="654" y1="81.7" x2="654" y2="155.4"/>
                <line class="cls-2" x1="662.5" y1="210.1" x2="662.5" y2="719.7"/>
                <line class="cls-2" x1="38.3" y1="766" x2="347.3" y2="766"/>
                <line class="cls-2" x1="40.5" y1="854.3" x2="40.5" y2="904.8"/>
                <line class="cls-2" x1="347.3" y1="98.5" x2="347.3" y2="763.8"/>
                <line class="cls-2" x1="880.5" y1="763.8" x2="844.5" y2="763.8"/>
                <line class="cls-2" x1="347.3" y1="763.8" x2="427.7" y2="763.8"/>
                <line class="cls-2" x1="495.3" y1="763.8" x2="531.3" y2="763.8"/>
                <line class="cls-2" x1="533.5" y1="719.7" x2="533.5" y2="210.1"/>
                <line class="cls-2" x1="345.2" y1="854.3" x2="345.2" y2="904.8"/>
                <line class="cls-2" x1="4.5" y1="879.7" x2="49" y2="879.7"/>
                <line class="cls-2" x1="381.2" y1="879.7" x2="336.8" y2="879.7"/>
                <line class="cls-2" x1="721.8" y1="210.1" x2="721.8" y2="719.7"/>
                <line class="cls-2" x1="654" y1="210.1" x2="654" y2="719.7"/>
              </g>
              <g>
                <line class="cls-3" x1="533.5" y1="763.8" x2="533.5" y2="719.7"/>
                <line class="cls-3" x1="533.5" y1="210.1" x2="533.5" y2="81.7"/>
                <line class="cls-3" x1="544" y1="763.8" x2="544" y2="210.1"/>
                <line class="cls-3" x1="537.8" y1="155.4" x2="537.8" y2="81.7"/>
                <line class="cls-3" x1="38.3" y1="766" x2="38.3" y2="98.5"/>
                <line class="cls-3" x1="831.8" y1="763.8" x2="831.8" y2="210.1"/>
                <line class="cls-3" x1="838.1" y1="155.4" x2="838.1" y2="81.7"/>
                <line class="cls-3" x1="1028.5" y1="763.8" x2="948.1" y2="763.8"/>
                <polyline class="cls-3" points="842.3 763.8 842.3 210.1 842.3 81.7"/>
                <line class="cls-3" x1="721.8" y1="81.7" x2="721.8" y2="155.4"/>
                <line class="cls-3" x1="713.3" y1="210.1" x2="713.3" y2="719.7"/>
                <line class="cls-3" x1="654" y1="81.7" x2="654" y2="155.4"/>
                <line class="cls-3" x1="662.5" y1="210.1" x2="662.5" y2="719.7"/>
                <line class="cls-3" x1="38.3" y1="766" x2="347.3" y2="766"/>
                <line class="cls-3" x1="40.5" y1="854.3" x2="40.5" y2="904.8"/>
                <line class="cls-3" x1="347.3" y1="98.5" x2="347.3" y2="763.8"/>
                <line class="cls-3" x1="880.5" y1="763.8" x2="844.5" y2="763.8"/>
                <line class="cls-3" x1="347.3" y1="763.8" x2="427.7" y2="763.8"/>
                <line class="cls-3" x1="495.3" y1="763.8" x2="531.3" y2="763.8"/>
                <line class="cls-3" x1="533.5" y1="719.7" x2="533.5" y2="210.1"/>
                <line class="cls-3" x1="345.2" y1="854.3" x2="345.2" y2="904.8"/>
                <line class="cls-3" x1="4.5" y1="879.7" x2="49" y2="879.7"/>
                <line class="cls-3" x1="381.2" y1="879.7" x2="336.8" y2="879.7"/>
                <line class="cls-3" x1="721.8" y1="210.1" x2="721.8" y2="719.7"/>
                <line class="cls-3" x1="654" y1="210.1" x2="654" y2="719.7"/>
              </g>
              <g>
                <line class="cls-4" x1="423.4" y1="210.1" x2="440.3" y2="210.1"/>
                <line class="cls-4" x1="423.4" y1="227" x2="423.4" y2="210.1"/>
                <line class="cls-4" x1="952.5" y1="210.1" x2="935.5" y2="210.1"/>
                <line class="cls-4" x1="952.5" y1="227" x2="952.5" y2="210.1"/>
                <line class="cls-4" x1="423.4" y1="727" x2="423.4" y2="710.2"/>
                <line class="cls-4" x1="952.5" y1="727" x2="952.5" y2="710.2"/>
              </g>
            </g>
          </g>
        </g>
      </g>
    </g>
  </g>
</svg>