<?xml version="1.0" encoding="UTF-8"?>
<svg xmlns="http://www.w3.org/2000/svg" version="1.1" viewBox="0 0 1024.2 1024.2">
  <defs>
    <style>
      .cls-1 {
        fill: none;
        stroke: #212020;
      }
    </style>
  </defs>
  <!-- Generator: Adobe Illustrator 28.7.1, SVG Export Plug-In . SVG Version: 1.2.0 Build 142)  -->
  <g>
    <g id="UV_Out_Header">
      <polygon id="Out_Header" class="cls-1" points="10.4 .1 10.4 774.4 10.4 776.7 10.4 779.2 10.4 838.5 20.7 838.5 20.7 941.6 22.7 956.3 28.2 969.4 36.8 980.5 47.9 989.1 61.1 994.6 75.7 996.6 268.1 996.6 275.5 995.6 282 992.8 287.6 988.6 291.9 983 294.6 976.4 295.6 969.1 295.6 779.2 295.6 776.7 316.2 776.7 316.2 779.2 316.2 992.3 316.5 1000.3 318.4 1007.3 322 1013.4 326.9 1018.4 333 1021.9 343.7 1024.1 680.5 1024.1 691.2 1021.9 697.3 1018.4 702.2 1013.4 705.8 1007.3 707.7 1000.3 708 992.3 708 779.2 708 776.7 728.6 776.7 728.6 779.2 728.6 969.1 729.6 976.4 732.3 983 736.6 988.6 742.2 992.8 748.8 995.6 756.1 996.6 948.5 996.6 963.1 994.6 976.3 989.1 987.4 980.5 996 969.4 1001.5 956.3 1003.5 941.6 1003.5 838.5 1013.8 838.5 1013.8 779.2 1013.8 776.7 1013.8 774.4 1013.8 .1 10.4 .1"/>
    </g>
  </g>
</svg>