<?xml version="1.0" encoding="UTF-8"?>
<svg xmlns="http://www.w3.org/2000/svg" version="1.1" viewBox="0 0 1024.1 1024.1">
  <defs>
    <style>
      .cls-1 {
        fill: none;
        stroke: #212020;
      }
    </style>
  </defs>
  <!-- Generator: Adobe Illustrator 28.7.1, SVG Export Plug-In . SVG Version: 1.2.0 Build 142)  -->
  <g>
    <g id="UV_Out_Shelf">
      <path id="Out_Shelf_Front" class="cls-1" d="M820.5,474.2l-1.1-1.8-1.3-1.6-1.6-1.3-1.8-1.1-2-.8V156.7h4.2V.1H207.6v156.6h4.2v311l-2,.8-1.8,1.1-1.6,1.3-1.3,1.6-1.1,1.8-.8,2h617.9l-.8-2h.2q0-.1,0,0ZM881.8,638.9l-2.4-7-3.9-6.2-5.1-5.3-6.2-4.1-7.1-2.7-57.4-14.3-1.6-.4.4-3.2.4-3.2,1.1-9.1.2-1.5h-88.9v10.6h-101.6v-10.6h-194.7v10.6h-101.6v-10.6h-88.9l.2,1.5,1.1,9.1.4,3.2.4,3.2-1.6.4-57.4,14.3-7.1,2.7-6.2,4.1-5.1,5.3-3.9,6.2-2.4,7-.9,7.6v256.8l.9,7.9,2.6,7.2,4.1,6.4,5.4,5.3,10.2,5.4,59.7,12.2,1.6.3v59.2l.6,4.5,1.7,4,2.6,3.4,3.4,2.6,4,1.7,4.5.6h537.5l4.5-.6,4-1.7,3.4-2.6,2.6-3.4,1.7-4,.6-4.5v-59.2l1.6-.3,59.7-12.2,10.2-5.4,5.4-5.3,4.1-6.4,2.6-7.2.9-7.9v-256.8l-.9-7.6h.6Z"/>
      <path id="Out_Shelf" class="cls-1" d="M821.3,476.1v87.1l-.4,3.7-1.2,3.5-1.9,3.1-2.5,2.6-4.7,2.8-5.2,1.5-5.2,1.5H224.5l-5.2-1.5-5.2-1.5-4.7-2.8-2.5-2.6-1.9-3.1-1.2-3.5-.4-3.7v-87.1h617.9Z"/>
    </g>
  </g>
</svg>