<?xml version="1.0" encoding="UTF-8"?>
<svg xmlns="http://www.w3.org/2000/svg" version="1.1" viewBox="0 0 1032.9 878.5">
  <defs>
    <style>
      .cls-1 {
        stroke: #212020;
      }

      .cls-1, .cls-2, .cls-3 {
        fill: none;
        stroke-width: .5px;
      }

      .cls-1, .cls-3 {
        stroke-dasharray: 20 5 0 0;
        stroke-miterlimit: 10;
      }

      .cls-2 {
        stroke-linejoin: round;
      }

      .cls-2, .cls-3 {
        stroke: #1c964d;
      }
    </style>
  </defs>
  <!-- Generator: Adobe Illustrator 28.7.1, SVG Export Plug-In . SVG Version: 1.2.0 Build 142)  -->
  <g>
    <g id="UV_In_Body">
      <g>
        <path class="cls-1" d="M681.5,840.3h-13.7l-15.7-7.9-19.8,12.1h-134.9v-154.5h-10.2l-2.1-2.1h-110.4v-42.3h-59.3v42.3h-110.4l-2.1,2.1h-10.2v154.5H57.7l-23.8-14.6v-50.6l-13.7-6.8H4.2v-82l-4.2-2.1V16.9h4.2V0h994.8v16.9h33.9v673.1h-33.9v74.1h13.7l20.2,10.1v56l-20.2,10.1h-13.7v38.1h-317.5v-38.1h0Z"/>
        <g>
          <polyline class="cls-2" points="8.5 4.2 8.5 21.2 4.2 21.2"/>
          <polyline class="cls-2" points="58.9 840.3 188.4 840.3 188.4 685.8"/>
          <polyline class="cls-2" points="1028.7 685.8 996.9 685.8 994.8 687.9"/>
          <line class="cls-2" x1="499.5" y1="4.2" x2="681.5" y2="4.2"/>
          <line class="cls-2" x1="685.8" y1="4.2" x2="685.8" y2="21.2"/>
          <line class="cls-2" x1="499.5" y1="4.2" x2="345" y2="4.2"/>
          <line class="cls-2" x1="499.5" y1="78.3" x2="345" y2="78.3"/>
          <line class="cls-2" x1="490.2" y1="129.1" x2="345" y2="129.1"/>
          <line class="cls-2" x1="345" y1="4.2" x2="345" y2="78.3"/>
          <line class="cls-2" x1="1028.7" y1="21.2" x2="1028.7" y2="685.8"/>
          <line class="cls-2" x1="685.8" y1="4.2" x2="994.8" y2="4.2"/>
          <line class="cls-2" x1="345" y1="133.4" x2="345" y2="618.1"/>
          <line class="cls-2" x1="499.5" y1="133.4" x2="345" y2="133.4"/>
          <line class="cls-2" x1="4.2" y1="21.2" x2="4.2" y2="685.8"/>
          <line class="cls-2" x1="190.5" y1="4.2" x2="345" y2="4.2"/>
          <line class="cls-2" x1="190.5" y1="78.3" x2="345" y2="78.3"/>
          <line class="cls-2" x1="199.8" y1="129.1" x2="345" y2="129.1"/>
          <line class="cls-2" x1="190.5" y1="133.4" x2="345" y2="133.4"/>
          <line class="cls-2" x1="190.5" y1="4.2" x2="8.5" y2="4.2"/>
          <line class="cls-2" x1="345" y1="625.5" x2="345" y2="633.9"/>
          <path class="cls-2" d="M499.5,133.4c-2.8-2.9-6.6-4.4-10.6-4.2"/>
          <path class="cls-2" d="M190.5,133.4c2.8-2.9,6.6-4.4,10.6-4.2"/>
          <polyline class="cls-2" points="927.1 120.4 753.5 120.4 745.1 163 753.5 163"/>
          <line class="cls-2" x1="935.6" y1="163" x2="927.1" y2="120.4"/>
          <line class="cls-2" x1="927.1" y1="163" x2="935.6" y2="163"/>
          <polyline class="cls-2" points="918.6 129.1 762 129.1 753.5 163"/>
          <line class="cls-2" x1="927.1" y1="163" x2="918.6" y2="129.1"/>
          <polyline class="cls-2" points="685.8 874.2 994.8 874.2 994.8 836.1"/>
          <polyline class="cls-2" points="631.1 840.3 501.6 840.3 501.6 685.8"/>
          <line class="cls-2" x1="1028.7" y1="776.8" x2="1011.7" y2="768.3"/>
          <line class="cls-2" x1="997.1" y1="836.1" x2="1011.7" y2="836.1"/>
          <line class="cls-2" x1="1028.7" y1="827.6" x2="1028.7" y2="776.8"/>
          <line class="cls-2" x1="994.8" y1="776.8" x2="992.7" y2="776.8"/>
          <line class="cls-2" x1="994.8" y1="768.3" x2="994.8" y2="687.9"/>
          <line class="cls-2" x1="1011.7" y1="836.1" x2="1028.7" y2="827.6"/>
          <line class="cls-2" x1="1011.7" y1="768.3" x2="997.1" y2="768.3"/>
          <line class="cls-2" x1="651.9" y1="776.8" x2="668.8" y2="768.3"/>
          <line class="cls-2" x1="683.5" y1="836.1" x2="668.8" y2="836.1"/>
          <line class="cls-2" x1="651.9" y1="827.6" x2="651.9" y2="776.8"/>
          <line class="cls-2" x1="685.8" y1="768.3" x2="685.8" y2="685.8"/>
          <line class="cls-2" x1="668.8" y1="836.1" x2="651.9" y2="827.6"/>
          <line class="cls-2" x1="668.8" y1="768.3" x2="683.5" y2="768.3"/>
          <line class="cls-2" x1="685.8" y1="874.2" x2="685.8" y2="836.1"/>
          <line class="cls-2" x1="651.9" y1="827.6" x2="631.1" y2="840.3"/>
          <polyline class="cls-2" points="501.6 685.8 499.5 685.8 488.9 685.8"/>
          <line class="cls-2" x1="203.2" y1="683.7" x2="311.2" y2="683.7"/>
          <line class="cls-2" x1="486.8" y1="683.7" x2="378.9" y2="683.7"/>
          <line class="cls-2" x1="488.9" y1="685.8" x2="486.8" y2="683.7"/>
          <line class="cls-2" x1="201.1" y1="685.8" x2="203.2" y2="683.7"/>
          <polyline class="cls-2" points="685.8 685.8 681.5 687.9 681.5 768.3"/>
          <line class="cls-2" x1="4.2" y1="685.8" x2="8.5" y2="687.9"/>
          <polyline class="cls-2" points="681.5 4.2 681.5 21.2 685.8 21.2"/>
          <line class="cls-2" x1="1028.7" y1="21.2" x2="994.8" y2="21.2"/>
          <line class="cls-2" x1="994.8" y1="4.2" x2="994.8" y2="21.2"/>
          <line class="cls-2" x1="188.4" y1="685.8" x2="201.1" y2="685.8"/>
          <line class="cls-2" x1="8.5" y1="687.9" x2="8.5" y2="768.3"/>
          <line class="cls-2" x1="38.1" y1="827.6" x2="58.9" y2="840.3"/>
          <line class="cls-2" x1="21.2" y1="768.3" x2="8.5" y2="768.3"/>
          <line class="cls-2" x1="38.1" y1="776.8" x2="21.2" y2="768.3"/>
          <line class="cls-2" x1="38.1" y1="827.6" x2="38.1" y2="776.8"/>
          <line class="cls-2" x1="88.9" y1="690" x2="84.7" y2="685.8"/>
          <line class="cls-2" x1="152.4" y1="685.8" x2="148.2" y2="690"/>
          <line class="cls-2" x1="88.9" y1="690" x2="148.2" y2="690"/>
          <line class="cls-2" x1="601.1" y1="690" x2="605.4" y2="685.8"/>
          <line class="cls-2" x1="537.6" y1="685.8" x2="541.9" y2="690"/>
          <line class="cls-2" x1="601.1" y1="690" x2="541.9" y2="690"/>
          <line class="cls-2" x1="994.8" y1="768.3" x2="992.7" y2="776.8"/>
          <line class="cls-2" x1="994.8" y1="776.8" x2="997.1" y2="768.3"/>
          <line class="cls-2" x1="994.8" y1="827.6" x2="992.7" y2="827.6"/>
          <line class="cls-2" x1="994.8" y1="836.1" x2="992.7" y2="827.6"/>
          <line class="cls-2" x1="994.8" y1="827.6" x2="997.1" y2="836.1"/>
          <line class="cls-2" x1="685.8" y1="776.8" x2="687.9" y2="776.8"/>
          <line class="cls-2" x1="685.8" y1="768.3" x2="687.9" y2="776.8"/>
          <line class="cls-2" x1="685.8" y1="776.8" x2="683.5" y2="768.3"/>
          <line class="cls-2" x1="685.8" y1="827.6" x2="687.9" y2="827.6"/>
          <line class="cls-2" x1="685.8" y1="836.1" x2="687.9" y2="827.6"/>
          <line class="cls-2" x1="685.8" y1="827.6" x2="683.5" y2="836.1"/>
          <line class="cls-2" x1="378.9" y1="641.3" x2="378.9" y2="683.7"/>
          <line class="cls-2" x1="311.2" y1="641.3" x2="311.2" y2="683.7"/>
          <line class="cls-2" x1="378.9" y1="641.3" x2="311.2" y2="641.3"/>
          <line class="cls-3" x1="499.5" y1="133.4" x2="499.5" y2="78.3"/>
          <line class="cls-3" x1="488.9" y1="685.8" x2="488.9" y2="133.4"/>
          <line class="cls-3" x1="495.3" y1="78.3" x2="495.3" y2="4.2"/>
          <line class="cls-3" x1="994.8" y1="687.9" x2="994.8" y2="21.2"/>
          <line class="cls-3" x1="201.1" y1="685.8" x2="201.1" y2="133.4"/>
          <line class="cls-3" x1="194.7" y1="78.3" x2="194.7" y2="4.2"/>
          <line class="cls-3" x1="4.2" y1="685.8" x2="84.7" y2="685.8"/>
          <polyline class="cls-3" points="190.5 685.8 190.5 133.4 190.5 78.3"/>
          <line class="cls-2" x1="345" y1="618.1" x2="345" y2="625.5"/>
          <line class="cls-2" x1="345" y1="633.9" x2="345" y2="641.3"/>
          <line class="cls-3" x1="311.2" y1="4.2" x2="311.2" y2="78.3"/>
          <line class="cls-3" x1="319.6" y1="133.4" x2="319.6" y2="641.3"/>
          <line class="cls-3" x1="378.9" y1="4.2" x2="378.9" y2="78.3"/>
          <line class="cls-3" x1="370.4" y1="133.4" x2="370.4" y2="641.3"/>
          <line class="cls-3" x1="994.8" y1="687.9" x2="685.8" y2="687.9"/>
          <line class="cls-3" x1="992.7" y1="776.8" x2="992.7" y2="827.6"/>
          <line class="cls-3" x1="685.8" y1="21.2" x2="685.8" y2="685.8"/>
          <line class="cls-3" x1="152.4" y1="685.8" x2="188.4" y2="685.8"/>
          <line class="cls-3" x1="685.8" y1="685.8" x2="605.4" y2="685.8"/>
          <line class="cls-3" x1="537.6" y1="685.8" x2="501.6" y2="685.8"/>
          <line class="cls-3" x1="499.5" y1="685.8" x2="499.5" y2="133.4"/>
          <line class="cls-3" x1="687.9" y1="776.8" x2="687.9" y2="827.6"/>
          <line class="cls-3" x1="1028.7" y1="802.2" x2="984.2" y2="802.2"/>
          <line class="cls-3" x1="651.9" y1="802.2" x2="696.4" y2="802.2"/>
          <line class="cls-3" x1="311.2" y1="133.4" x2="311.2" y2="641.3"/>
          <line class="cls-3" x1="378.9" y1="133.4" x2="378.9" y2="641.3"/>
          <line class="cls-3" x1="190.5" y1="78.3" x2="190.5" y2="4.2"/>
          <line class="cls-3" x1="499.5" y1="78.3" x2="499.5" y2="4.2"/>
        </g>
      </g>
    </g>
  </g>
</svg>