<?xml version="1.0" encoding="UTF-8"?>
<svg xmlns="http://www.w3.org/2000/svg" version="1.1" viewBox="0 0 758.6 1042.3">
  <defs>
    <style>
      .cls-1 {
        stroke-dasharray: 20.3 5.1 0 0;
      }

      .cls-1, .cls-2, .cls-3, .cls-4, .cls-5, .cls-6, .cls-7, .cls-8, .cls-9, .cls-10 {
        fill: none;
        stroke-width: .5px;
      }

      .cls-1, .cls-2, .cls-3, .cls-5, .cls-6, .cls-7, .cls-8, .cls-9 {
        stroke: #212020;
      }

      .cls-1, .cls-2, .cls-3, .cls-5, .cls-6, .cls-7, .cls-8, .cls-9, .cls-10 {
        stroke-miterlimit: 10;
      }

      .cls-2 {
        stroke-dasharray: 0 0;
      }

      .cls-3 {
        stroke-dasharray: 18.1 4.5 0 0;
      }

      .cls-4 {
        stroke-linejoin: round;
      }

      .cls-4, .cls-10 {
        stroke: #c4007a;
      }

      .cls-5 {
        stroke-dasharray: 0 0;
      }

      .cls-6 {
        stroke-dasharray: 19.7 4.9 0 0;
      }

      .cls-7 {
        stroke-dasharray: 19.4 4.8 0 0;
      }

      .cls-9, .cls-10 {
        stroke-dasharray: 19.5 4.9 0 0;
      }
    </style>
  </defs>
  <!-- Generator: Adobe Illustrator 28.7.1, SVG Export Plug-In . SVG Version: 1.2.0 Build 142)  -->
  <g>
    <g id="UV_Out_Shelf">
      <g>
        <g>
          <path class="cls-8" d="M684.4,604.1l-9.9-2.5.5-3.8,3.1-.8c2.3-.6,4.4-1.5,6.4-2.7"/>
          <path class="cls-2" d="M688.2,591.5h0"/>
          <path class="cls-3" d="M688.2,591.5c5.4-4.7,8.7-11.6,8.7-19.1v-88.5l-.4-1.2c-.4-1.3-.9-2.5-1.5-3.6"/>
          <path class="cls-8" d="M695.1,479.1c-1.6-3-3.9-5.6-6.6-7.6v-10.2"/>
          <line class="cls-2" x1="688.5" y1="456.4" x2="688.5" y2="456.4"/>
          <line class="cls-9" x1="688.5" y1="456.4" x2="688.5" y2="184.1"/>
          <polyline class="cls-8" points="688.5 184.1 688.5 173.9 692.7 173.9 692.7 163.7"/>
          <line class="cls-2" x1="692.7" y1="158.8" x2="692.7" y2="158.8"/>
          <line class="cls-7" x1="692.7" y1="158.8" x2="692.7" y2="10.4"/>
          <polyline class="cls-8" points="692.7 10.4 692.7 .2 682.5 .2"/>
          <line class="cls-2" x1="677.5" y1=".2" x2="677.5" y2=".2"/>
          <line class="cls-6" x1="677.5" y1=".2" x2="76.1" y2=".2"/>
          <polyline class="cls-8" points="76.1 .2 65.9 .2 65.9 10.4"/>
          <line class="cls-2" x1="65.9" y1="15.4" x2="65.9" y2="15.4"/>
          <line class="cls-7" x1="65.9" y1="15.4" x2="65.9" y2="163.7"/>
          <polyline class="cls-8" points="65.9 163.7 65.9 173.9 70.1 173.9 70.1 184.1"/>
          <line class="cls-2" x1="70.1" y1="189" x2="70.1" y2="189"/>
          <line class="cls-9" x1="70.1" y1="189" x2="70.1" y2="461.4"/>
          <path class="cls-8" d="M70.1,461.4v10.2c-2.8,1.9-5.1,4.5-6.6,7.6"/>
          <line class="cls-2" x1="61.8" y1="483.4" x2="61.8" y2="483.4"/>
          <path class="cls-3" d="M61.8,483.4l-.2.5v88.5c0,9.1,4.9,17.3,12.5,21.8"/>
          <path class="cls-8" d="M74.1,594.2c2,1.2,4.1,2.1,6.4,2.7l3.1.8.5,3.8-9.9,2.5"/>
          <line class="cls-2" x1="69.4" y1="605.3" x2="69.4" y2="605.3"/>
          <path class="cls-6" d="M69.4,605.3l-37,9.3c-18.9,4.7-32,21.6-32.1,41.1v257.1c0,9.8,3.4,19.3,9.6,26.8,6.2,7.5,14.9,12.7,24.4,14.7l40.7,8.1"/>
          <polyline class="cls-8" points="75 962.4 85 964.3 85 974.5"/>
          <line class="cls-5" x1="85" y1="979.7" x2="85" y2="979.7"/>
          <path class="cls-1" d="M85,979.7v37c0,6.8,2.7,13.2,7.4,17.9,4.8,4.8,11.2,7.4,18,7.4h537.9c6.8,0,13.2-2.7,18-7.4,4.8-4.8,7.4-11.2,7.4-17.9v-42.2"/>
          <polyline class="cls-8" points="673.6 974.5 673.6 964.3 683.6 962.4"/>
          <line class="cls-2" x1="688.5" y1="961.4" x2="688.5" y2="961.4"/>
          <path class="cls-6" d="M688.5,961.4l35.8-7.2c9.6-1.9,18.3-7.2,24.4-14.7,6.2-7.5,9.6-17.1,9.6-26.8v-257.1c0-19.5-13.2-36.3-32.1-41.1l-41.9-10.5"/>
        </g>
        <g>
          <path class="cls-4" d="M93.4,1016.7c0,9.4,7.5,16.9,16.9,16.9h268.9"/>
          <line class="cls-4" x1="379.3" y1="8.7" x2="74.4" y2="8.7"/>
          <line class="cls-4" x1="78.6" y1="165.4" x2="78.6" y2="375.1"/>
          <line class="cls-4" x1="93.4" y1="965.9" x2="93.4" y2="1016.7"/>
          <path class="cls-4" d="M93.4,608l-59,14.8c-15.1,3.8-25.6,17.3-25.7,32.9v257.1c0,16.2,11.4,30,27.2,33.2l57.5,11.5v8.5"/>
          <path class="cls-4" d="M93.4,608l-2.1-16.9-8.6-2.3c-7.4-2-12.5-8.7-12.6-16.4v-87.2"/>
          <path class="cls-4" d="M78.6,476.7c-4.1,1.2-7.2,4.4-8.5,8.5"/>
          <polyline class="cls-4" points="180.2 375.1 180.2 368.7 281.9 368.7"/>
          <line class="cls-4" x1="281.9" y1="368.7" x2="281.9" y2="375.1"/>
          <line class="cls-4" x1="648.2" y1="1033.6" x2="379.3" y2="1033.6"/>
          <line class="cls-4" x1="680" y1="375.1" x2="680" y2="476.7"/>
          <path class="cls-4" d="M665.2,965.9v50.8c0,9.4-7.5,16.9-16.9,16.9"/>
          <path class="cls-4" d="M665.2,608l59,14.8c15.1,3.8,25.6,17.3,25.7,32.9v257.1c0,16.2-11.4,30-27.2,33.2l-57.5,11.5v8.5"/>
          <path class="cls-4" d="M665.2,608l2.1-16.9,8.6-2.3c7.4-2,12.5-8.7,12.6-16.4v-87.2"/>
          <path class="cls-4" d="M680,476.7c4.1,1.2,7.2,4.4,8.5,8.5"/>
          <polyline class="cls-4" points="578.3 375.1 578.3 368.7 476.7 368.7"/>
          <line class="cls-4" x1="476.7" y1="368.7" x2="476.7" y2="375.1"/>
          <polyline class="cls-4" points="74.4 8.7 74.4 165.4 78.6 165.4"/>
          <line class="cls-4" x1="78.6" y1="375.1" x2="78.6" y2="476.7"/>
          <polyline class="cls-4" points="684.2 8.7 684.2 165.4 680 165.4"/>
          <line class="cls-4" x1="379.3" y1="8.7" x2="684.2" y2="8.7"/>
          <line class="cls-4" x1="680" y1="165.4" x2="680" y2="375.1"/>
          <polyline class="cls-4" points="281.9 591.1 180.2 591.1 180.2 601.6 281.9 601.6 281.9 591.1"/>
          <polyline class="cls-4" points="476.7 591.1 476.7 601.6 578.3 601.6 578.3 591.1 476.7 591.1"/>
          <polyline class="cls-4" points="311.5 187.7 447.1 187.7 447.1 196.1 311.5 196.1 311.5 187.7"/>
          <polyline class="cls-4" points="311.5 770 447.1 770 447.1 789.1 311.5 789.1 311.5 770"/>
          <path class="cls-4" d="M332.6,933.7c8.2,0,14.8-6.6,14.8-14.8,0-8.2-6.6-14.8-14.8-14.8-8.2,0-14.8,6.6-14.8,14.8,0,8.2,6.6,14.8,14.8,14.8"/>
          <path class="cls-4" d="M426,933.7c-8.2,0-14.8-6.6-14.8-14.8,0-8.2,6.6-14.8,14.8-14.8,8.2,0,14.8,6.6,14.8,14.8,0,8.2-6.6,14.8-14.8,14.8"/>
          <line class="cls-10" x1="93.4" y1="965.9" x2="665.2" y2="965.9"/>
          <line class="cls-10" x1="91.3" y1="591.1" x2="180.2" y2="591.1"/>
          <line class="cls-10" x1="70.1" y1="485.2" x2="688.5" y2="485.2"/>
          <line class="cls-10" x1="680" y1="476.7" x2="78.6" y2="476.7"/>
          <line class="cls-10" x1="78.6" y1="375.1" x2="180.2" y2="375.1"/>
          <line class="cls-10" x1="93.4" y1="608" x2="93.4" y2="957.4"/>
          <line class="cls-10" x1="281.9" y1="375.1" x2="476.7" y2="375.1"/>
          <line class="cls-10" x1="667.3" y1="591.1" x2="578.3" y2="591.1"/>
          <line class="cls-10" x1="680" y1="375.1" x2="578.3" y2="375.1"/>
          <line class="cls-10" x1="665.2" y1="608" x2="665.2" y2="957.4"/>
          <line class="cls-10" x1="476.7" y1="591.1" x2="281.9" y2="591.1"/>
        </g>
      </g>
    </g>
  </g>
</svg>