<?xml version="1.0" encoding="UTF-8"?>
<svg xmlns="http://www.w3.org/2000/svg" version="1.1" viewBox="0 0 1033 878.4">
  <defs>
    <style>
      .cls-1 {
        stroke: #f44336;
      }

      .cls-1, .cls-2, .cls-3, .cls-4 {
        fill: none;
        stroke-width: .5px;
      }

      .cls-1, .cls-4 {
        stroke-dasharray: 20 5 0 0;
        stroke-miterlimit: 10;
      }

      .cls-2, .cls-3 {
        stroke-linejoin: round;
      }

      .cls-2, .cls-4 {
        stroke: #f44336;
      }

      .cls-3 {
        stroke: #f44336;
      }
    </style>
  </defs>
  <!-- Generator: Adobe Illustrator 28.7.1, SVG Export Plug-In . SVG Version: 1.2.0 Build 142)  -->
  <g>
    <g id="Layer_1">
      <g id="Out_Body">
        <g>
          <path class="cls-1" d="M351.5,878.2H34.1v-37.9h-13.7L.2,830.3v-55.7l20.2-10h13.7v-73.7H.2V17.1h33.8V.2h994.4v16.8h4.2v672.1l-4.2,2.1v81.6h-15.9l-13.7,6.8v50.3l-23.8,14.5h-134.9v-153.7h-10.2l-2.1-2.1h-110.4v-42.1h-59.2v42.1h-110.4l-2.1,2.1h-10.2v153.7h-134.9l-19.8-12-15.7,7.8h-13.7v37.9h.1Z"/>
          <g>
            <polyline class="cls-2" points="1024.3 4.5 1024.3 21.3 1028.5 21.3"/>
            <polyline class="cls-2" points="973.9 840.3 844.5 840.3 844.5 686.6"/>
            <polyline class="cls-2" points="4.5 686.6 36.2 686.6 38.3 688.7"/>
            <line class="cls-2" x1="533.4" y1="4.5" x2="351.5" y2="4.5"/>
            <line class="cls-2" x1="347.2" y1="4.5" x2="347.2" y2="21.3"/>
            <line class="cls-2" x1="533.4" y1="4.5" x2="687.9" y2="4.5"/>
            <line class="cls-2" x1="533.4" y1="78.2" x2="687.9" y2="78.2"/>
            <line class="cls-2" x1="542.7" y1="128.7" x2="687.9" y2="128.7"/>
            <line class="cls-2" x1="687.9" y1="4.5" x2="687.9" y2="78.2"/>
            <line class="cls-2" x1="4.5" y1="21.3" x2="4.5" y2="686.6"/>
            <line class="cls-2" x1="347.2" y1="4.5" x2="38.3" y2="4.5"/>
            <line class="cls-2" x1="687.9" y1="132.9" x2="687.9" y2="619.2"/>
            <line class="cls-2" x1="533.4" y1="132.9" x2="687.9" y2="132.9"/>
            <line class="cls-2" x1="1028.5" y1="21.3" x2="1028.5" y2="686.6"/>
            <line class="cls-2" x1="842.3" y1="4.5" x2="687.9" y2="4.5"/>
            <line class="cls-2" x1="842.3" y1="78.2" x2="687.9" y2="78.2"/>
            <line class="cls-2" x1="833" y1="128.7" x2="687.9" y2="128.7"/>
            <line class="cls-2" x1="842.3" y1="132.9" x2="687.9" y2="132.9"/>
            <line class="cls-2" x1="842.3" y1="4.5" x2="1024.3" y2="4.5"/>
            <line class="cls-2" x1="687.9" y1="626.6" x2="687.9" y2="635"/>
            <path class="cls-2" d="M533.4,132.9c2.8-2.9,6.6-4.4,10.6-4.2"/>
            <path class="cls-2" d="M842.3,132.9c-2.8-2.9-6.6-4.4-10.6-4.2"/>
            <polyline class="cls-2" points="106 120.1 279.5 120.1 288 162.4 279.5 162.4"/>
            <line class="cls-2" x1="97.6" y1="162.4" x2="106" y2="120.1"/>
            <line class="cls-2" x1="106" y1="162.4" x2="97.6" y2="162.4"/>
            <polyline class="cls-2" points="114.5 128.7 271.1 128.7 279.5 162.4"/>
            <line class="cls-2" x1="106" y1="162.4" x2="114.5" y2="128.7"/>
            <polyline class="cls-2" points="347.2 874 38.3 874 38.3 836.1"/>
            <polyline class="cls-2" points="401.9 840.3 531.3 840.3 531.3 686.6"/>
            <line class="cls-2" x1="4.5" y1="777.1" x2="21.4" y2="768.7"/>
            <line class="cls-2" x1="36.1" y1="836.1" x2="21.4" y2="836.1"/>
            <line class="cls-2" x1="4.5" y1="827.6" x2="4.5" y2="777.1"/>
            <line class="cls-2" x1="38.3" y1="777.1" x2="40.5" y2="777.1"/>
            <line class="cls-2" x1="38.3" y1="768.7" x2="38.3" y2="688.7"/>
            <line class="cls-2" x1="21.4" y1="836.1" x2="4.5" y2="827.6"/>
            <line class="cls-2" x1="21.4" y1="768.7" x2="36.1" y2="768.7"/>
            <line class="cls-2" x1="381.1" y1="777.1" x2="364.2" y2="768.7"/>
            <line class="cls-2" x1="349.5" y1="836.1" x2="364.2" y2="836.1"/>
            <line class="cls-2" x1="381.1" y1="827.6" x2="381.1" y2="777.1"/>
            <line class="cls-2" x1="347.2" y1="768.7" x2="347.2" y2="686.6"/>
            <line class="cls-2" x1="364.2" y1="836.1" x2="381.1" y2="827.6"/>
            <line class="cls-2" x1="364.2" y1="768.7" x2="349.5" y2="768.7"/>
            <line class="cls-2" x1="347.2" y1="874" x2="347.2" y2="836.1"/>
            <line class="cls-2" x1="381.1" y1="827.6" x2="401.9" y2="840.3"/>
            <polyline class="cls-2" points="531.3 686.6 533.4 686.6 544 686.6"/>
            <line class="cls-2" x1="829.6" y1="684.5" x2="721.7" y2="684.5"/>
            <line class="cls-2" x1="546.1" y1="684.5" x2="654" y2="684.5"/>
            <line class="cls-2" x1="544" y1="686.6" x2="546.1" y2="684.5"/>
            <line class="cls-2" x1="831.8" y1="686.6" x2="829.6" y2="684.5"/>
            <polyline class="cls-2" points="347.2 686.6 351.5 688.7 351.5 768.7"/>
            <line class="cls-2" x1="1028.5" y1="686.6" x2="1024.3" y2="688.7"/>
            <polyline class="cls-2" points="351.5 4.5 351.5 21.3 347.2 21.3"/>
            <line class="cls-2" x1="4.5" y1="21.3" x2="38.3" y2="21.3"/>
            <line class="cls-2" x1="38.3" y1="4.5" x2="38.3" y2="21.3"/>
            <line class="cls-2" x1="844.5" y1="686.6" x2="831.8" y2="686.6"/>
            <line class="cls-2" x1="1024.3" y1="688.7" x2="1024.3" y2="768.7"/>
            <line class="cls-2" x1="994.7" y1="827.6" x2="973.9" y2="840.3"/>
            <line class="cls-2" x1="1011.6" y1="768.7" x2="1024.3" y2="768.7"/>
            <line class="cls-2" x1="994.7" y1="777.1" x2="1011.6" y2="768.7"/>
            <line class="cls-2" x1="994.7" y1="827.6" x2="994.7" y2="777.1"/>
            <line class="cls-2" x1="943.9" y1="690.8" x2="948.1" y2="686.6"/>
            <line class="cls-2" x1="880.4" y1="686.6" x2="884.7" y2="690.8"/>
            <line class="cls-2" x1="943.9" y1="690.8" x2="884.7" y2="690.8"/>
            <line class="cls-2" x1="431.9" y1="690.8" x2="427.6" y2="686.6"/>
            <line class="cls-2" x1="495.3" y1="686.6" x2="491.1" y2="690.8"/>
            <line class="cls-2" x1="431.9" y1="690.8" x2="491.1" y2="690.8"/>
            <line class="cls-2" x1="38.3" y1="768.7" x2="40.5" y2="777.1"/>
            <line class="cls-2" x1="38.3" y1="777.1" x2="36.1" y2="768.7"/>
            <line class="cls-2" x1="38.3" y1="827.6" x2="40.5" y2="827.6"/>
            <line class="cls-2" x1="38.3" y1="836.1" x2="40.5" y2="827.6"/>
            <line class="cls-2" x1="38.3" y1="827.6" x2="36.1" y2="836.1"/>
            <line class="cls-2" x1="347.2" y1="777.1" x2="345.1" y2="777.1"/>
            <line class="cls-2" x1="347.2" y1="768.7" x2="345.1" y2="777.1"/>
            <line class="cls-2" x1="347.2" y1="777.1" x2="349.5" y2="768.7"/>
            <line class="cls-2" x1="347.2" y1="827.6" x2="345.1" y2="827.6"/>
            <line class="cls-2" x1="347.2" y1="836.1" x2="345.1" y2="827.6"/>
            <line class="cls-2" x1="347.2" y1="827.6" x2="349.5" y2="836.1"/>
            <line class="cls-2" x1="654" y1="642.4" x2="654" y2="684.5"/>
            <line class="cls-2" x1="721.7" y1="642.4" x2="721.7" y2="684.5"/>
            <line class="cls-2" x1="654" y1="642.4" x2="721.7" y2="642.4"/>
            <line class="cls-4" x1="533.4" y1="686.6" x2="533.4" y2="642.4"/>
            <line class="cls-4" x1="533.4" y1="132.9" x2="533.4" y2="4.5"/>
            <line class="cls-4" x1="544" y1="686.6" x2="544" y2="132.9"/>
            <line class="cls-4" x1="537.7" y1="78.2" x2="537.7" y2="4.5"/>
            <line class="cls-4" x1="38.3" y1="688.7" x2="38.3" y2="21.3"/>
            <line class="cls-4" x1="831.8" y1="686.6" x2="831.8" y2="132.9"/>
            <line class="cls-4" x1="838.1" y1="78.2" x2="838.1" y2="4.5"/>
            <line class="cls-4" x1="1028.5" y1="686.6" x2="948.1" y2="686.6"/>
            <polyline class="cls-4" points="842.3 686.6 842.3 132.9 842.3 4.5"/>
            <line class="cls-4" x1="687.9" y1="619.2" x2="687.9" y2="626.6"/>
            <line class="cls-4" x1="687.9" y1="635" x2="687.9" y2="642.4"/>
            <line class="cls-4" x1="721.7" y1="4.5" x2="721.7" y2="78.2"/>
            <line class="cls-4" x1="713.3" y1="132.9" x2="713.3" y2="642.4"/>
            <line class="cls-4" x1="654" y1="4.5" x2="654" y2="78.2"/>
            <line class="cls-4" x1="662.5" y1="132.9" x2="662.5" y2="642.4"/>
            <line class="cls-4" x1="38.3" y1="688.7" x2="347.2" y2="688.7"/>
            <line class="cls-4" x1="40.5" y1="777.1" x2="40.5" y2="827.6"/>
            <line class="cls-4" x1="347.2" y1="21.3" x2="347.2" y2="686.6"/>
            <line class="cls-4" x1="880.4" y1="686.6" x2="844.5" y2="686.6"/>
            <line class="cls-4" x1="347.2" y1="686.6" x2="427.6" y2="686.6"/>
            <line class="cls-4" x1="495.3" y1="686.6" x2="531.3" y2="686.6"/>
            <line class="cls-4" x1="533.4" y1="642.4" x2="533.4" y2="132.9"/>
            <line class="cls-4" x1="345.1" y1="777.1" x2="345.1" y2="827.6"/>
            <line class="cls-4" x1="4.5" y1="802.4" x2="48.9" y2="802.4"/>
            <line class="cls-4" x1="381.1" y1="802.4" x2="336.7" y2="802.4"/>
            <line class="cls-4" x1="721.7" y1="132.9" x2="721.7" y2="642.4"/>
            <line class="cls-4" x1="654" y1="132.9" x2="654" y2="642.4"/>
            <line class="cls-3" x1="423.4" y1="132.9" x2="440.3" y2="132.9"/>
            <line class="cls-3" x1="423.4" y1="149.8" x2="423.4" y2="132.9"/>
            <line class="cls-3" x1="952.4" y1="132.9" x2="935.4" y2="132.9"/>
            <line class="cls-3" x1="952.4" y1="149.8" x2="952.4" y2="132.9"/>
            <line class="cls-3" x1="423.4" y1="649.7" x2="423.4" y2="632.9"/>
            <line class="cls-3" x1="952.4" y1="649.7" x2="952.4" y2="632.9"/>
          </g>
        </g>
      </g>
    </g>
  </g>
</svg>