<?xml version="1.0" encoding="UTF-8"?>
<svg xmlns="http://www.w3.org/2000/svg" version="1.1" viewBox="0 0 1031.6 1052.3">
  <defs>
    <style>
      .cls-1 {
        stroke: #212020;
        stroke-dasharray: 20 5 0 0;
        stroke-miterlimit: 10;
      }

      .cls-1, .cls-2 {
        fill: none;
        stroke-width: .5px;
      }

      .cls-2 {
        stroke: #c4007a;
        stroke-linejoin: round;
      }
    </style>
  </defs>
  <!-- Generator: Adobe Illustrator 28.7.1, SVG Export Plug-In . SVG Version: 1.2.0 Build 142)  -->
  <g>
    <g id="UV_Out_Header">
      <path class="cls-1" d="M684.3,1052h-336.9c-11.1,0-21.4-4.3-29.2-12.1-7.8-7.8-12-18.1-12.1-29.1v-4.7c-1.5,2.3-3.2,4.4-5.2,6.3-7.8,7.8-18.1,12-29.1,12.1H79.4c-18.4,0-35.7-7.2-48.6-20.1-12.9-12.9-20.1-30.2-20.1-48.6v-89.4H.2V.2h1031.1v866.1h-10.3v89.4c0,18.4-7.2,35.7-20.1,48.6s-30.2,20.1-48.6,20.1h-192.6c-11,0-21.4-4.3-29.1-12.1s-3.7-4.1-5.2-6.3v4.7c0,11.1-4.3,21.4-12.1,29.2-7.8,7.8-18.1,12-29.1,12.1h0Z"/>
      <g>
        <line class="cls-2" x1="14" y1="14" x2="1017.6" y2="14"/>
        <path class="cls-2" d="M1007.3,852.6v103.1c0,30.5-24.5,54.9-55,55h-192.5"/>
        <path class="cls-2" d="M79.4,1010.8c-30.5,0-54.9-24.5-55-55v-103.1"/>
        <polyline class="cls-2" points="14 14 14 852.6 24.3 852.6"/>
        <polyline class="cls-2" points="1017.6 14 1017.6 852.6 1007.3 852.6"/>
        <path class="cls-2" d="M347.4,1038.2c-15.2,0-27.4-12.3-27.5-27.5v-220"/>
        <path class="cls-2" d="M299.3,790.8v192.5c0,15.2-12.3,27.4-27.5,27.5H79.4"/>
        <path class="cls-2" d="M684.3,1038.2c15.2,0,27.4-12.3,27.5-27.5v-220"/>
        <path class="cls-2" d="M732.3,790.8v192.5c0,15.2,12.3,27.4,27.5,27.5"/>
        <line class="cls-2" x1="684.3" y1="1038.2" x2="347.4" y2="1038.2"/>
        <line class="cls-2" x1="271.8" y1="790.8" x2="347.4" y2="790.8"/>
        <line class="cls-2" x1="684.3" y1="790.8" x2="759.8" y2="790.8"/>
      </g>
    </g>
  </g>
</svg>