<?xml version="1.0" encoding="UTF-8"?>
<svg id="UV_In_Body" xmlns="http://www.w3.org/2000/svg" viewBox="0 0 1025 870.5">
  <defs>
    <style>
      .cls-1 {
        fill: #d68bcb;
        opacity: .2;
        stroke: #212020;
      }
    </style>
  </defs>
  <path id="In_Body_Right_Bot" class="cls-1" d="M184.6,681.6v154.4H55.1l-20.8-12.7v-50.8l-16.9-8.5H4.7v-80.4l-2.9-1.4-1.4-.7h80.4l.7.7,1.4,1.4,2.1,2.1h59.2l3.6-3.6.7-.7h36v.2h.1Z"/>
  <path id="In_Body_Right" class="cls-1" d="M186.7.5v681.1h-38.1l-4.3,4h-59.1l-4.3-4H.5V17.4h4.2V.5s182,0,182,0Z"/>
  <path id="In_Body_Left_Bot" class="cls-1" d="M681.8,681.6l-.7.3-.7.3-2.9,1.4v80.4h-12.7l-16.9,8.5v50.8l-20.8,12.7h-129.4v-154.4h36l.7.7,3.6,3.6h59.2l2.1-2.1,1.4-1.4.7-.7h80.4v-.1Z"/>
  <path id="In_Body_Left" class="cls-1" d="M681.8,17.4v664.2h-80.4l-4.3,4h-59.1l-4.3-4h-38.1V.5h181.9v16.9s4.3,0,4.3,0Z"/>
  <path id="In_Body_Center_Bot" class="cls-1" d="M1024.5,772.6v50.8l-16.9,8.5h-14.7l-2.3-8.5h-2.1l2.1,8.5v38.1h-308.9v-38.1l2.1-8.5h-2.1l-2.4,8.2h-14.4l-16.8-8.4v-50.5l16.8-8.4h14.4l2.4,8.2h2.1l-2.1-8.5v-80.4h308.9v80.4l-2.1,8.5h2.1l2.3-8.5h14.7l16.9,8.5h0v.1Z"/>
  <path id="In_Body_Center" class="cls-1" d="M992.8,17.4h-2.1V.5h-308.9v683.2h308.9l.7-.7,1.4-1.4h31.7V17.4h-31.7ZM922.9,159.2l-.2-.8-.2-.8-8.1-32.3h-156.6l-8.1,32.3-.2.8-.2.8h-8.5l8.5-42.5h173.5l8.5,42.5h-8.5.1Z"/>
  <path id="In_Body" class="cls-1" d="M495.6,74.6v55l-.7-.6-1.4-1.3-1.8-1-1.8-.7-1.9-.5-2.9-.2H197.3l-2.9.2-1.9.5-1.8.7-1.8,1-1.4,1.3-.7.6v-55h308.9-.1ZM495.6.5h-154.2v73.6h150.7l2.9.4h.7V.6h-.1v-.1ZM186.7,681.6h10.6l.7-.7,1.4-1.4h107.9v-42.3h33.6V129.5h-154.2v552.1h0ZM190.2,74.2h150.7V.6h-154.2v74h.7l2.9-.4h-.1ZM495.6,129.5h-154.2v507.7h33.6v42.3h107.9l1.4,1.4.7.7h10.6V129.5h0Z"/>
</svg>