<?xml version="1.0" encoding="UTF-8"?>
<svg id="UV_In_Header" xmlns="http://www.w3.org/2000/svg" viewBox="0 0 1003.5 1024.2">
  <defs>
    <style>
      .cls-1 {
        fill: rgba(214, 139, 203, .9);
        stroke: #212020;
        stroke-width: .2px;
      }
    </style>
  </defs>
  <path id="In_Header" class="cls-1" d="M1003.4.1v838.4h-10.3v103.1l-2,14.6-5.5,13.1-8.6,11.1-11.1,8.6-13.1,5.5-14.6,2h-192.4l-7.3-1-6.6-2.8-5.6-4.3-4.3-5.6-2.8-6.6-1-7.3v-192.4h-20.6v215.6l-.3,8.1-1.9,7-3.6,6.1-5,5-6.1,3.6-10.7,2.2h-336.8l-10.7-2.2-6.1-3.6-5-5-3.6-6.1-1.9-7-.3-8.1v-215.6h-20.6v192.4l-1,7.3-2.8,6.6-4.3,5.6-5.6,4.3-6.6,2.8-7.3,1H65.3l-14.6-2-13.1-5.5-11.1-8.6-8.6-11.1-5.5-13.1-2-14.6v-103.1H.1V.1h1003.4-.1Z"/>
</svg>