<?xml version="1.0" encoding="UTF-8"?>
<svg id="UV_In_Shelf" xmlns="http://www.w3.org/2000/svg" viewBox="0 0 741.4 1024.9">
  <defs>
    <style>
      .cls-1 {
        fill: #d68bcb;
        opacity: .9;
        stroke: #212020;
      }
    </style>
  </defs>
  <path id="In_Shelf_Back" class="cls-1" d="M656.7,956.8v50.8l-.6,4.5-1.7,4-2.6,3.4-3.4,2.6-4,1.7-4.5.6H102.3l-4.5-.6-4-1.7-3.4-2.6-2.6-3.4-1.7-4-.6-4.5v-50.8h571.4-.2Z"/>
  <path id="In_Shelf" class="cls-1" d="M740.5,639.3l-2.4-7-3.9-6.2-5.1-5.3-6.2-4.1-7.1-2.7-57.4-14.3-1.6-.4.4-3.2.4-3.2,1.1-9.1.2-1.5,5.2-1.5,5.2-1.5,4.7-2.8,2.5-2.6,1.9-3.1,1.2-3.5.4-3.7v-87.1l-.8-2-1.1-1.8-1.3-1.6-1.6-1.3-1.8-1.1-2-.8V157.1h4.2V.5H66.3v156.6h4.2v311l-2,.8-1.8,1.1-1.6,1.3-1.3,1.6-1.1,1.8-.8,2v87.1l.4,3.7,1.2,3.5,1.9,3.1,2.5,2.6,4.7,2.8,5.2,1.5,5.2,1.5.2,1.5,1.1,9.1.4,3.2.4,3.2-1.6.4-57.4,14.3-7.1,2.7-6.2,4.1-5.1,5.3-3.9,6.2-2.4,7-.9,7.6v256.8l.9,7.9,2.6,7.2,4.1,6.4,5.4,5.3,10.2,5.4,59.7,12.2,1.6.3v8.5h571.4v-8.5l1.6-.3,59.7-12.2,10.2-5.4,5.4-5.3,4.1-6.4,2.6-7.2.9-7.9v-256.8l-.9-7.6.5-.2Z"/>
</svg>