<?xml version="1.0" encoding="UTF-8"?>
<svg id="Out_Body" xmlns="http://www.w3.org/2000/svg" viewBox="0 0 1024.2 869.7">
  <defs>
    <style>
      .cls-1 {
        fill: rgba(0, 0, 0, .9);
        stroke: #212020;
        stroke-width: .2px;
      }
    </style>
  </defs>
  <path id="Out_Body_Right_In" class="cls-1" d="M826.7,129.1h.7v552.1l-.7-.7-1.4-1.4h-107.9v-42.3h-33.6V129.1h143-.1ZM833,.1h-149.3v73.6h150V.1s-.7,0-.7,0Z"/>
  <path id="Out_Body_Right_Bot" class="cls-1" d="M1024.1,681.2l-1.4.7-2.9,1.4v80.4h-12.7l-16.9,8.5v50.8l-20.8,12.7h-129.5v-154.4h36l.7.7,3.6,3.6h59.2l2.1-2.1,1.4-1.4.7-.7h80.4v-.2h.1Z"/>
  <path id="Out_Body_Right" class="cls-1" d="M1024.1,17v664.2h-80.4l-4.3,4h-59.1l-4.3-4h-38.1V.1h182v16.9s4.2,0,4.2,0Z"/>
  <path id="Out_Body_Left_In" class="cls-1" d="M682.6,129.1h.7v507.7h-33.6v42.3h-107.9l-1.4,1.4-.7.7V129.1h143-.1ZM682.6.1h-149.3v73.6h150V.1s-.7,0-.7,0Z"/>
  <path id="Out_Body_Left_Bot" class="cls-1" d="M526.9,681.2v154.4h-129.4l-20.8-12.7v-50.8l-16.9-8.5h-12.7v-80.4l-2.9-1.4-.7-.3-.7-.3h80.4l.7.7,1.4,1.4,2.1,2.1h59.2l3.6-3.6.7-.7h36v.1Z"/>
  <path id="Out_Body_Left" class="cls-1" d="M529,.1v681.1h-38.1l-4.3,4h-59.1l-4.3-4h-80.4V17h4.2V.1s182,0,182,0Z"/>
  <path id="Out_Body_Front" class="cls-1" d="M529,680.5V129.1h10.6v552.1h-10.6v-.7h0ZM837.2.1h-3.6v73.6h.7l2.9.4h.7V.2h-.7v-.1ZM835.8,74.2h-306.8v55l.7-.6,1.4-1.3,1.8-1,1.8-.7,1.9-.5,2.9-.2h287.7l2.9.2,1.9.5,1.8.7,1.8,1,1.4,1.3.7.6v-55h-2.1.2,0ZM828,129.1h-.7v552.1h10.6V129.1h-9.9,0ZM532.6,73.8h.7V.1h-4.2v74h.7l2.9-.4h-.1v.1Z"/>
  <path id="Out_Body_Center_Bot" class="cls-1" d="M376.5,772.3v50.5l-16.8,8.4h-14.4l-2.4-8.2h-2.1l2.1,8.5v38.1H34v-38.1l2.1-8.5h-2.1l-2.3,8.5h-14.7L.1,822.9v-50.8l16.9-8.5h14.7l2.3,8.5h2.1l-2.1-8.5v-80.4h308.9v80.4l-2.1,8.5h2.1l2.4-8.2h14.4l16.8,8.4h0Z"/>
  <path id="Out_Body_Center" class="cls-1" d="M34,.1v16.9H.1v664.2h31.7l1.4,1.4.7.7h308.9V.1H34ZM101.7,116.2h173.5l8.5,42.5h-8.5l-.2-.8-.2-.8-8.1-32.3H110.1l-8.1,32.3-.2.8-.2.8h-8.5l8.5-42.5h.1Z"/>
</svg>