<?xml version="1.0" encoding="UTF-8"?>
<svg id="UV_Out_Header" xmlns="http://www.w3.org/2000/svg" viewBox="0 0 1003.6 1024.2">
  <defs>
    <style>
      .cls-1 {
        fill: rgba(156, 216, 139, .9);
        stroke: #212020;
        stroke-width: .2px;
      }
    </style>
  </defs>
  <polygon id="Out_Header" class="cls-1" points=".1 .1 .1 774.4 .1 776.7 .1 779.2 .1 838.5 10.4 838.5 10.4 941.6 12.4 956.3 17.9 969.4 26.5 980.5 37.6 989.1 50.8 994.6 65.4 996.6 257.8 996.6 265.2 995.6 271.7 992.8 277.3 988.6 281.6 983 284.3 976.4 285.3 969.1 285.3 779.2 285.3 776.7 305.9 776.7 305.9 779.2 305.9 992.3 306.2 1000.3 308.1 1007.3 311.7 1013.4 316.6 1018.4 322.7 1021.9 333.4 1024.1 670.2 1024.1 680.9 1021.9 687 1018.4 691.9 1013.4 695.5 1007.3 697.4 1000.3 697.7 992.3 697.7 779.2 697.7 776.7 718.3 776.7 718.3 779.2 718.3 969.1 719.3 976.4 722 983 726.3 988.6 731.9 992.8 738.5 995.6 745.8 996.6 938.2 996.6 952.8 994.6 966 989.1 977.1 980.5 985.7 969.4 991.2 956.3 993.2 941.6 993.2 838.5 1003.5 838.5 1003.5 779.2 1003.5 776.7 1003.5 774.4 1003.5 .1 .1 .1"/>
</svg>